<svg width="1216" height="769" viewBox="0 0 1216 769" fill="none" xmlns="http://www.w3.org/2000/svg">
<path d="M21.0832 767H0.233154V662H42.6832C47.0832 662 51.2332 662.85 55.1332 664.55C59.0332 666.25 62.4332 668.6 65.3332 671.6C68.3332 674.5 70.6832 677.9 72.3832 681.8C74.1832 685.7 75.0832 689.9 75.0832 694.4C75.0832 698.9 74.2332 703.15 72.5332 707.15C70.8332 711.15 68.4832 714.6 65.4832 717.5C62.5832 720.4 59.1332 722.7 55.1332 724.4C51.2332 726.1 47.0832 726.95 42.6832 726.95H21.0832V767ZM21.0832 706.25H38.7832C44.0832 706.25 47.9832 705.1 50.4832 702.8C52.9832 700.4 54.2332 697.6 54.2332 694.4C54.2332 691.2 52.9832 688.5 50.4832 686.3C47.9832 684 44.0832 682.85 38.7832 682.85H21.0832V706.25Z" fill="black"/>
<path d="M207.742 767H182.242L153.742 726.95H141.142V767H120.442V662H162.892C167.292 662 171.442 662.85 175.342 664.55C179.242 666.25 182.642 668.6 185.542 671.6C188.542 674.5 190.892 677.9 192.592 681.8C194.392 685.7 195.292 689.9 195.292 694.4C195.292 701 193.592 706.95 190.192 712.25C186.792 717.45 182.342 721.3 176.842 723.8L207.742 767ZM158.992 706.25C164.292 706.25 168.192 705.1 170.692 702.8C173.192 700.4 174.442 697.6 174.442 694.4C174.442 691.2 173.192 688.5 170.692 686.3C168.192 684 164.292 682.85 158.992 682.85H141.142V706.25H158.992Z" fill="black"/>
<path d="M291.538 768.05C284.838 768.05 278.288 766.8 271.888 764.3C265.488 761.8 259.738 758.25 254.638 753.65C249.638 748.95 245.588 743.3 242.488 736.7C239.488 730.1 237.988 722.75 237.988 714.65C237.988 707.65 239.338 700.9 242.038 694.4C244.738 687.9 248.438 682.2 253.138 677.3C257.938 672.3 263.588 668.35 270.088 665.45C276.688 662.45 283.838 660.95 291.538 660.95C298.438 660.95 305.088 662.3 311.488 665C317.988 667.6 323.688 671.3 328.588 676.1C333.588 680.8 337.588 686.45 340.588 693.05C343.588 699.65 345.088 706.85 345.088 714.65C345.088 721.55 343.738 728.25 341.038 734.75C338.438 741.15 334.738 746.85 329.938 751.85C325.238 756.75 319.588 760.7 312.988 763.7C306.488 766.6 299.338 768.05 291.538 768.05ZM291.538 681.8C287.038 681.8 282.788 682.65 278.788 684.35C274.888 686.05 271.438 688.4 268.438 691.4C265.438 694.4 263.088 697.9 261.388 701.9C259.688 705.9 258.838 710.15 258.838 714.65C258.838 719.15 259.688 723.4 261.388 727.4C263.188 731.3 265.538 734.75 268.438 737.75C271.438 740.65 274.888 742.95 278.788 744.65C282.788 746.35 287.038 747.2 291.538 747.2C296.038 747.2 300.238 746.35 304.138 744.65C308.138 742.95 311.588 740.65 314.488 737.75C317.488 734.75 319.838 731.3 321.538 727.4C323.238 723.4 324.088 719.15 324.088 714.65C324.088 710.15 323.188 705.9 321.388 701.9C319.688 697.9 317.338 694.4 314.338 691.4C311.438 688.4 307.988 686.05 303.988 684.35C300.088 682.65 295.938 681.8 291.538 681.8Z" fill="black"/>
<path d="M392.785 767V662H429.236C437.036 662 444.036 663.3 450.236 665.9C456.536 668.4 461.885 672 466.285 676.7C470.685 681.3 474.086 686.85 476.486 693.35C478.886 699.75 480.086 706.85 480.086 714.65C480.086 722.05 478.886 728.95 476.486 735.35C474.086 741.65 470.685 747.15 466.285 751.85C461.885 756.55 456.536 760.25 450.236 762.95C444.036 765.65 437.036 767 429.236 767H392.785ZM413.486 746.15H429.236C433.536 746.15 437.486 745.35 441.086 743.75C444.786 742.15 447.985 739.95 450.685 737.15C453.385 734.25 455.486 730.9 456.986 727.1C458.486 723.2 459.236 719.05 459.236 714.65C459.236 710.25 458.486 706.15 456.986 702.35C455.486 698.45 453.385 695.1 450.685 692.3C447.985 689.4 444.786 687.15 441.086 685.55C437.486 683.85 433.536 683 429.236 683H413.486V746.15Z" fill="black"/>
<path d="M567.961 768.05C561.961 768.05 556.461 767.05 551.461 765.05C546.461 762.95 542.161 760.1 538.561 756.5C535.061 752.9 532.311 748.6 530.311 743.6C528.311 738.6 527.311 733.1 527.311 727.1V662H548.011V724.4C548.011 727.9 548.561 731.1 549.661 734C550.761 736.8 552.211 739.2 554.011 741.2C555.911 743.1 558.061 744.6 560.461 745.7C562.861 746.7 565.361 747.2 567.961 747.2C570.561 747.2 573.061 746.7 575.461 745.7C577.861 744.6 579.961 743.1 581.761 741.2C583.661 739.2 585.161 736.8 586.261 734C587.361 731.1 587.911 727.9 587.911 724.4V662H608.761V727.1C608.761 733.1 607.761 738.6 605.761 743.6C603.761 748.6 600.961 752.9 597.361 756.5C593.761 760.1 589.461 762.95 584.461 765.05C579.461 767.05 573.961 768.05 567.961 768.05Z" fill="black"/>
<path d="M748.61 749.45C742.71 755.35 736.31 759.95 729.41 763.25C722.61 766.45 715.41 768.05 707.81 768.05C699.71 768.05 692.36 766.55 685.76 763.55C679.16 760.45 673.51 756.4 668.81 751.4C664.21 746.4 660.66 740.7 658.16 734.3C655.66 727.9 654.41 721.35 654.41 714.65C654.41 706.85 655.86 699.65 658.76 693.05C661.76 686.45 665.71 680.8 670.61 676.1C675.61 671.3 681.31 667.6 687.71 665C694.21 662.3 700.91 660.95 707.81 660.95C714.81 660.95 721.71 662.45 728.51 665.45C735.41 668.35 741.56 672.55 746.96 678.05L732.41 692.75C728.91 689.25 725.01 686.55 720.71 684.65C716.51 682.75 712.21 681.8 707.81 681.8C703.31 681.8 699.06 682.7 695.06 684.5C691.16 686.2 687.71 688.55 684.71 691.55C681.81 694.45 679.51 697.9 677.81 701.9C676.11 705.9 675.26 710.15 675.26 714.65C675.26 719.15 676.11 723.4 677.81 727.4C679.51 731.3 681.81 734.75 684.71 737.75C687.71 740.65 691.16 742.95 695.06 744.65C699.06 746.35 703.31 747.2 707.81 747.2C712.81 747.2 717.41 746.15 721.61 744.05C725.91 741.85 730.01 738.8 733.91 734.9L748.61 749.45Z" fill="black"/>
<path d="M862.426 682.85H833.626V767H812.776V682.85H783.676V662H862.426V682.85Z" fill="black"/>
<path d="M907.719 767V662H928.419V767H907.719Z" fill="black"/>
<path d="M1027.27 768.05C1020.57 768.05 1014.02 766.8 1007.62 764.3C1001.22 761.8 995.47 758.25 990.37 753.65C985.37 748.95 981.32 743.3 978.22 736.7C975.22 730.1 973.72 722.75 973.72 714.65C973.72 707.65 975.07 700.9 977.77 694.4C980.47 687.9 984.17 682.2 988.87 677.3C993.67 672.3 999.32 668.35 1005.82 665.45C1012.42 662.45 1019.57 660.95 1027.27 660.95C1034.17 660.95 1040.82 662.3 1047.22 665C1053.72 667.6 1059.42 671.3 1064.32 676.1C1069.32 680.8 1073.32 686.45 1076.32 693.05C1079.32 699.65 1080.82 706.85 1080.82 714.65C1080.82 721.55 1079.47 728.25 1076.77 734.75C1074.17 741.15 1070.47 746.85 1065.67 751.85C1060.97 756.75 1055.32 760.7 1048.72 763.7C1042.22 766.6 1035.07 768.05 1027.27 768.05ZM1027.27 681.8C1022.77 681.8 1018.52 682.65 1014.52 684.35C1010.62 686.05 1007.17 688.4 1004.17 691.4C1001.17 694.4 998.82 697.9 997.12 701.9C995.42 705.9 994.57 710.15 994.57 714.65C994.57 719.15 995.42 723.4 997.12 727.4C998.92 731.3 1001.27 734.75 1004.17 737.75C1007.17 740.65 1010.62 742.95 1014.52 744.65C1018.52 746.35 1022.77 747.2 1027.27 747.2C1031.77 747.2 1035.97 746.35 1039.87 744.65C1043.87 742.95 1047.32 740.65 1050.22 737.75C1053.22 734.75 1055.57 731.3 1057.27 727.4C1058.97 723.4 1059.82 719.15 1059.82 714.65C1059.82 710.15 1058.92 705.9 1057.12 701.9C1055.42 697.9 1053.07 694.4 1050.07 691.4C1047.17 688.4 1043.72 686.05 1039.72 684.35C1035.82 682.65 1031.67 681.8 1027.27 681.8Z" fill="black"/>
<path d="M1128.52 660.95H1137.67L1194.37 723.95V662H1215.07V768.05H1205.77L1149.22 705.2V767H1128.52V660.95Z" fill="black"/>
<path d="M583.95 0.436646C583.824 0.562744 582.91 0.751892 581.933 0.878052C580.357 1.0672 577.362 1.57159 572.728 2.42285C571.94 2.58051 570.459 2.8327 569.419 3.02185C563.808 3.96765 561.381 4.3775 559.804 4.6297C558.859 4.78735 556.715 5.13416 555.076 5.4494C553.437 5.73315 551.451 6.01691 550.663 6.11151C549.875 6.17456 548.961 6.36371 548.614 6.48981C548.047 6.742 546.25 7.05731 541.207 7.81396C537.928 8.28687 535.375 8.72821 534.745 8.91742C534.177 9.10657 533.263 9.26416 528.44 9.98932C525.004 10.4937 522.451 10.9351 521.821 11.1558C521.474 11.2504 520.339 11.4711 519.299 11.5972C518.259 11.7233 516.147 12.0701 514.571 12.3538C513.026 12.6376 510.977 12.9528 510.095 13.0474C509.181 13.142 508.424 13.3312 508.424 13.4573C508.424 13.5834 507.604 13.7725 506.627 13.8671C504.484 14.0248 500.607 14.6553 498.81 15.0967C497.707 15.3489 497.423 15.6011 496.824 16.9252C496.446 17.7449 496.131 18.5961 496.131 18.7853C496.131 18.9745 496.004 19.1321 495.815 19.1321C495.658 19.1321 495.5 19.2897 495.5 19.4789C495.5 19.8257 495.248 20.4247 493.798 23.6404C493.357 24.6494 492.978 25.5952 492.978 25.7527C492.978 25.942 492.852 26.0681 492.663 26.0681C492.506 26.0681 492.348 26.2572 492.348 26.4779C492.348 26.7301 492.159 27.3291 491.907 27.8336C491.465 28.7163 489.952 32.0266 488.975 34.265C488.376 35.5892 486.989 38.6158 486.075 40.602C485.728 41.3901 485.413 42.1783 485.413 42.3675C485.413 42.5566 485.319 42.7773 485.192 42.8404C484.846 42.9665 483.837 45.2049 483.837 45.7724C483.837 46.0246 483.711 46.2453 483.522 46.2453C483.364 46.2453 483.207 46.529 483.207 46.8443C483.207 47.1911 483.081 47.5379 482.923 47.664C482.765 47.7586 482.545 48.263 482.419 48.7674C482.292 49.3034 482.072 49.7132 481.914 49.7132C481.757 49.7132 481.631 49.9024 481.631 50.1231C481.631 50.3438 481.284 51.2896 480.842 52.1723C480.401 53.0866 480.054 53.9378 480.054 54.127C480.054 54.2846 479.928 54.4423 479.739 54.4423C479.582 54.4423 479.424 54.6314 479.424 54.8836C479.424 55.1359 478.92 56.46 478.289 57.8156C477.659 59.1713 476.808 61.0629 476.398 62.0087C475.957 62.9545 475.389 64.1526 475.137 64.6255C474.885 65.1299 474.696 65.7289 474.696 65.9811C474.696 66.2333 474.57 66.4225 474.381 66.4225C474.223 66.4225 474.065 66.5486 474.065 66.7378C474.065 66.8954 473.687 67.8412 473.246 68.8501C472.773 69.8589 472.079 71.3722 471.701 72.255C471.291 73.1062 470.756 74.3358 470.503 74.9348C470.251 75.5338 469.589 76.9525 469.085 78.0875C468.581 79.2224 467.856 80.8303 467.446 81.713C467.067 82.5643 466.469 83.8569 466.153 84.519C465.807 85.2126 465.554 85.9692 465.554 86.1899C465.554 86.4106 465.428 86.5997 465.239 86.5997C465.082 86.5997 464.924 86.7574 464.924 86.9465C464.924 87.1672 464.451 88.3337 463.852 89.5633C463.285 90.7928 462.56 92.3692 462.245 93.0627C461.52 94.7337 460.322 97.4135 459.376 99.3681C458.966 100.251 458.62 101.134 458.62 101.354C458.62 101.543 458.494 101.733 458.304 101.733C458.147 101.733 457.989 101.985 457.989 102.3C457.989 102.615 457.863 102.994 457.737 103.151C457.579 103.341 457.138 104.255 456.728 105.201C456.35 106.146 455.562 107.912 454.995 109.141C452.473 114.47 451.685 116.298 451.685 116.739C451.685 116.992 451.559 117.181 451.37 117.181C451.212 117.181 451.054 117.465 451.054 117.811C451.054 118.158 450.928 118.442 450.739 118.442C450.582 118.442 450.424 118.6 450.424 118.789C450.424 119.167 449.857 120.491 448.659 123.013C448.249 123.896 447.902 124.779 447.902 125C447.902 125.189 447.776 125.378 447.587 125.378C447.429 125.378 447.272 125.567 447.272 125.788C447.272 126.008 447.02 126.765 446.673 127.459C445.444 130.044 444.75 131.652 444.75 131.967C444.75 132.156 444.624 132.314 444.435 132.314C444.277 132.314 444.12 132.503 444.12 132.724C444.12 132.944 443.867 133.701 443.521 134.395C443.206 135.057 442.701 136.192 442.386 136.885C442.102 137.579 441.503 138.84 441.094 139.66C440.684 140.511 440.337 141.394 440.337 141.646C440.337 141.898 440.211 142.087 440.053 142.087C439.896 142.087 439.675 142.497 439.549 143.033C439.423 143.537 439.202 144.042 439.045 144.136C438.887 144.262 438.761 144.609 438.761 144.956C438.761 145.271 438.635 145.555 438.446 145.555C438.288 145.555 438.131 145.807 438.131 146.123C438.131 146.438 437.91 146.974 437.658 147.321C437.406 147.636 437.185 148.172 437.185 148.456C437.185 148.771 437.059 149.023 436.87 149.023C436.712 149.023 436.554 149.244 436.554 149.464C436.554 149.717 436.208 150.599 435.766 151.419C435.325 152.239 434.978 153.09 434.978 153.311C434.978 153.563 434.852 153.752 434.695 153.752C434.537 153.752 434.348 154.067 434.253 154.446C434.033 155.391 433.276 157.346 433.056 157.535C432.961 157.63 432.614 158.355 432.267 159.175C431.952 160.026 431.574 160.688 431.448 160.688C431.29 160.688 431.196 160.909 431.196 161.161C431.196 161.413 431.07 161.886 430.881 162.201C430.187 163.494 428.39 167.592 428.17 168.381C428.075 168.822 427.854 169.2 427.697 169.2C427.539 169.2 427.413 169.452 427.413 169.736C427.413 170.051 427.192 170.587 426.94 170.903C426.688 171.25 426.467 171.785 426.467 172.101C426.467 172.416 426.341 172.668 426.152 172.668C425.995 172.668 425.837 172.857 425.837 173.11C425.837 173.362 425.49 174.245 425.081 175.096C424.671 175.915 424.103 177.114 423.851 177.713C423.599 178.312 422.874 179.919 422.244 181.275C421.613 182.631 421.109 183.892 421.109 184.049C421.109 184.207 420.983 184.333 420.794 184.333C420.636 184.333 420.478 184.68 420.478 185.121C420.478 185.563 420.352 185.91 420.163 185.91C420.006 185.91 419.848 186.067 419.848 186.256C419.848 186.445 419.407 187.549 418.871 188.715C417.925 190.765 417.547 191.553 415.939 195.115C415.498 196.124 414.773 197.701 414.332 198.615C413.89 199.529 413.544 200.443 413.544 200.664C413.544 200.853 413.417 201.042 413.228 201.042C413.071 201.042 412.913 201.295 412.913 201.61C412.913 201.925 412.787 202.304 412.661 202.461C412.503 202.65 411.904 203.911 411.337 205.299C410.738 206.686 410.139 207.852 410.013 207.915C409.887 207.978 409.761 208.388 409.761 208.798C409.761 209.208 409.635 209.555 409.446 209.555C409.288 209.555 409.131 209.681 409.131 209.838C409.131 210.028 408.563 211.383 407.87 212.865C407.176 214.347 406.609 215.797 406.609 216.049C406.609 216.301 406.483 216.491 406.294 216.491C406.136 216.491 405.978 216.648 405.978 216.869C405.978 217.216 405.663 217.941 403.74 222.039C403.236 223.08 402.826 224.12 402.826 224.309C402.826 224.53 402.7 224.688 402.511 224.688C402.353 224.688 402.196 224.94 402.196 225.255C402.196 225.57 402.07 225.949 401.944 226.138C401.786 226.296 401.187 227.557 400.62 228.944C400.021 230.331 399.422 231.497 399.296 231.561C399.17 231.624 399.044 232.033 399.044 232.443C399.044 232.853 398.917 233.2 398.728 233.2C398.571 233.2 398.413 233.326 398.413 233.515C398.413 233.83 397.089 236.857 396.333 238.307C396.081 238.749 395.891 239.348 395.891 239.631C395.891 239.915 395.765 240.136 395.576 240.136C395.419 240.136 395.261 240.42 395.261 240.766C395.261 241.113 395.135 241.397 394.977 241.397C394.82 241.397 394.599 241.807 394.473 242.343C394.347 242.847 394.126 243.352 393.969 243.446C393.811 243.572 393.685 243.919 393.685 244.266C393.685 244.581 393.559 244.865 393.37 244.865C393.212 244.865 393.054 245.117 393.054 245.432C393.054 245.748 392.834 246.284 392.582 246.63C392.329 246.946 392.109 247.482 392.109 247.765C392.109 248.081 391.983 248.333 391.794 248.333C391.636 248.333 391.478 248.522 391.478 248.774C391.478 249.026 391.1 249.972 390.659 250.918C390.186 251.832 389.713 252.873 389.556 253.22C389.429 253.566 388.736 255.08 388.042 256.624C387.317 258.138 386.75 259.525 386.75 259.683C386.75 259.872 386.624 259.998 386.435 259.998C386.277 259.998 386.12 260.345 386.12 260.786C386.12 261.227 385.994 261.574 385.804 261.574C385.647 261.574 385.489 261.732 385.489 261.921C385.489 262.331 384.764 263.97 383.724 266.019C383.314 266.839 382.967 267.722 382.967 268.006C382.967 268.289 382.841 268.51 382.652 268.51C382.495 268.51 382.337 268.762 382.337 269.046C382.337 269.361 382.116 269.897 381.864 270.213C381.612 270.559 381.391 271.095 381.391 271.411C381.391 271.726 381.265 271.978 381.076 271.978C380.919 271.978 380.761 272.136 380.761 272.325C380.761 272.482 380.383 273.46 379.941 274.437C379.5 275.414 378.933 276.644 378.712 277.18C378.491 277.684 377.798 279.229 377.167 280.585C376.537 281.941 376.033 283.202 376.033 283.359C376.033 283.517 375.907 283.643 375.717 283.643C375.56 283.643 375.402 283.99 375.402 284.431C375.402 284.873 375.276 285.219 375.087 285.219C374.929 285.219 374.772 285.377 374.772 285.566C374.772 285.881 374.078 287.489 372.849 290.138C372.534 290.831 372.25 291.588 372.25 291.777C372.25 291.998 372.124 292.155 371.935 292.155C371.777 292.155 371.62 292.344 371.62 292.534C371.62 292.754 371.273 293.637 370.863 294.52C370.453 295.371 369.76 296.884 369.35 297.83C368.909 298.776 368.058 300.636 367.459 301.929C366.86 303.221 366.103 304.955 365.757 305.775C365.441 306.626 365.063 307.288 364.937 307.288C364.779 307.288 364.685 307.635 364.685 308.076C364.685 308.518 364.559 308.865 364.37 308.865C364.212 308.865 364.054 308.991 364.054 309.18C364.054 309.495 362.825 312.364 361.974 314.003C361.722 314.508 361.533 315.107 361.533 315.359C361.533 315.611 361.407 315.8 361.217 315.8C361.06 315.8 360.902 315.99 360.902 316.179C360.902 316.399 360.556 317.282 360.114 318.165C359.704 319.016 359.326 319.93 359.326 320.12C359.326 320.34 359.2 320.529 359.011 320.529C358.853 320.529 358.696 320.719 358.696 320.971C358.696 321.223 358.475 321.822 358.223 322.327C357.372 323.966 356.174 326.803 356.174 327.119C356.174 327.308 356.048 327.465 355.859 327.465C355.701 327.465 355.544 327.655 355.544 327.875C355.544 328.285 354.945 329.735 354.251 330.996C354.094 331.312 353.967 331.785 353.967 332.037C353.967 332.289 353.841 332.51 353.715 332.51C353.589 332.51 353.211 333.203 352.864 334.086C352.517 334.937 352.139 335.662 352.013 335.662C351.887 335.662 351.761 336.009 351.761 336.451C351.761 336.892 351.635 337.239 351.446 337.239C351.288 337.239 351.067 337.743 350.941 338.342C350.847 338.941 350.626 339.446 350.469 339.446C350.311 339.446 350.185 339.635 350.185 339.887C350.185 340.108 349.838 340.959 349.397 341.779C348.956 342.598 348.609 343.481 348.609 343.733C348.609 343.954 348.483 344.175 348.294 344.175C348.136 344.175 347.978 344.364 347.978 344.616C347.978 344.868 347.789 345.467 347.537 345.972C346.528 347.926 345.457 350.417 345.457 350.732C345.457 350.953 345.331 351.111 345.141 351.111C344.984 351.111 344.826 351.331 344.826 351.584C344.826 351.836 344.7 352.309 344.511 352.624C343.912 353.633 341.674 358.709 341.674 359.024C341.674 359.182 341.548 359.308 341.359 359.308C341.201 359.308 341.044 359.654 341.044 360.096C341.044 360.537 340.917 360.884 340.728 360.884C340.571 360.884 340.35 361.388 340.224 361.987C340.129 362.586 339.94 363.091 339.814 363.091C339.72 363.091 339.436 363.564 339.184 364.1C338.963 364.667 338.553 365.55 338.333 366.054C338.081 366.559 337.891 367.158 337.891 367.41C337.891 367.631 337.797 367.82 337.671 367.82C337.513 367.82 337.135 368.482 336.82 369.333C336.504 370.153 335.748 371.887 335.117 373.179C334.519 374.472 333.794 376.111 333.478 376.805C333.163 377.499 332.47 379.043 331.934 380.21C331.398 381.408 330.957 382.511 330.957 382.669C330.957 382.827 330.831 382.953 330.641 382.953C330.484 382.953 330.326 383.3 330.326 383.709C330.326 384.119 330.2 384.529 330.074 384.592C329.948 384.655 329.412 385.664 328.908 386.894C328.403 388.092 327.804 389.384 327.584 389.731C327.363 390.078 327.174 390.582 327.174 390.898C327.174 391.213 327.048 391.465 326.859 391.465C326.701 391.465 326.544 391.654 326.544 391.843C326.544 392.064 326.165 393.041 325.724 393.987C324.873 395.753 323.896 397.865 322.919 400.135C322.603 400.829 321.878 402.405 321.311 403.666C320.712 404.896 320.239 406.062 320.239 406.251C320.239 406.44 320.113 406.598 319.924 406.598C319.766 406.598 319.609 406.945 319.609 407.386C319.609 407.828 319.483 408.174 319.294 408.174C319.136 408.174 318.978 408.332 318.978 408.553C318.978 408.742 318.632 409.625 318.222 410.507C317.812 411.39 316.929 413.25 316.299 414.637C315.669 416.025 314.944 417.569 314.691 418.074C314.439 418.578 314.25 419.177 314.25 419.429C314.25 419.65 314.124 419.839 313.935 419.839C313.777 419.839 313.62 420.06 313.62 420.344C313.62 420.627 313.431 421.226 313.178 421.668C312.926 422.141 312.453 423.15 312.107 423.938C311.76 424.726 310.877 426.618 310.152 428.194C309.427 429.739 308.734 431.315 308.576 431.662C307.977 433.081 305.014 439.544 303.974 441.719C303.722 442.223 303.533 442.822 303.533 443.075C303.533 443.295 303.407 443.484 303.217 443.484C303.06 443.484 302.902 443.674 302.902 443.926C302.902 444.178 302.713 444.777 302.461 445.282C301.61 446.921 300.381 449.79 300.381 450.105C300.381 450.294 300.254 450.42 300.065 450.42C299.908 450.42 299.75 450.61 299.75 450.83C299.75 451.051 299.498 451.808 299.151 452.501C298.836 453.163 298.237 454.424 297.859 455.307C297.481 456.158 296.692 457.861 296.125 459.09C295.589 460.288 294.864 461.865 294.549 462.558C294.234 463.252 293.729 464.387 293.414 465.049C293.067 465.743 292.815 466.499 292.815 466.72C292.815 466.941 292.721 467.13 292.595 467.13C292.437 467.13 292.059 467.792 291.744 468.643C291.397 469.463 290.798 470.85 290.388 471.764C290.01 472.647 289.663 473.561 289.663 473.719C289.663 473.908 289.537 474.066 289.348 474.066C289.19 474.066 289.033 474.223 289.033 474.444C289.033 474.633 288.749 475.39 288.434 476.083C288.087 476.808 287.52 478.07 287.141 478.952C286.763 479.804 286.164 481.096 285.849 481.758C285.502 482.452 285.25 483.177 285.25 483.398C285.25 483.618 285.124 483.839 284.998 483.902C284.872 483.934 284.273 485.132 283.674 486.519C283.107 487.906 282.508 489.167 282.35 489.356C282.224 489.514 282.098 489.892 282.098 490.207C282.098 490.523 282.003 490.775 281.877 490.775C281.72 490.775 281.341 491.437 281.026 492.288C280.711 493.108 279.986 494.747 279.419 495.977C278.851 497.175 278.032 499.003 277.559 500.012C277.117 501.021 276.739 501.967 276.739 502.125C276.739 502.314 276.613 502.44 276.424 502.44C276.266 502.44 276.109 502.661 276.109 502.913C276.109 503.48 275.1 505.719 274.785 505.845C274.627 505.908 274.533 506.16 274.533 506.412C274.533 506.664 274.407 507.106 274.249 507.421C274.06 507.705 273.587 508.745 273.177 509.691C272.736 510.637 271.885 512.497 271.286 513.79C270.687 515.082 269.962 516.722 269.647 517.415C269.332 518.109 268.764 519.37 268.386 520.253C266.463 524.446 266.022 525.486 266.022 525.77C266.022 525.959 265.896 526.085 265.707 526.085C265.549 526.085 265.391 526.274 265.391 526.526C265.391 526.779 265.202 527.378 264.95 527.882C264.698 528.355 264.13 529.553 263.689 530.499C263.279 531.445 262.491 533.147 261.987 534.282C261.483 535.417 260.758 537.025 260.348 537.908C259.97 538.759 259.371 540.051 259.055 540.714C258.709 541.407 258.457 542.164 258.457 542.384C258.457 542.605 258.33 542.794 258.141 542.794C257.984 542.794 257.826 542.952 257.826 543.173C257.826 543.362 257.479 544.245 257.07 545.127C256.219 546.987 255.62 548.438 255.62 548.627C255.62 548.721 272.042 548.784 292.153 548.784H328.687L329.538 546.987C330.011 545.979 330.736 544.497 331.146 543.709C331.556 542.889 331.902 542.006 331.902 541.722C331.902 541.439 332.06 541.218 332.217 541.218C332.407 541.218 332.533 541.092 332.533 540.903C332.533 540.745 333.163 539.295 333.92 537.687C336.41 532.39 337.261 530.467 337.261 530.152C337.261 529.994 337.419 529.868 337.576 529.868C337.765 529.868 337.891 529.648 337.891 529.427C337.891 529.175 338.238 528.292 338.679 527.472C339.121 526.653 339.467 525.801 339.467 525.581C339.467 525.328 339.594 525.139 339.751 525.139C339.909 525.139 340.129 524.635 340.224 524.036C340.35 523.437 340.539 522.932 340.665 522.932C340.791 522.932 341.075 522.459 341.327 521.892C341.579 521.356 342.115 520.19 342.525 519.338C342.903 518.456 343.25 517.573 343.25 517.352C343.25 517.131 343.408 516.942 343.565 516.942C343.754 516.942 343.881 516.753 343.881 516.532C343.881 516.343 344.322 515.303 344.826 514.262C345.331 513.222 345.772 512.182 345.772 511.961C345.772 511.772 345.929 511.583 346.087 511.583C346.276 511.583 346.402 511.362 346.402 511.141C346.402 510.889 346.749 510.006 347.19 509.187C347.632 508.367 347.978 507.516 347.978 507.295C347.978 507.043 348.136 506.854 348.294 506.854C348.483 506.854 348.609 506.664 348.609 506.412C348.609 506.192 348.956 505.34 349.397 504.521C349.838 503.701 350.185 502.818 350.185 502.566C350.185 502.345 350.342 502.125 350.5 502.125C350.689 502.125 350.815 501.872 350.815 501.557C350.815 501.242 351.036 500.706 351.288 500.359C351.54 500.044 351.761 499.508 351.761 499.193C351.761 498.909 351.887 498.657 352.013 498.657C352.139 498.657 352.517 497.931 352.864 497.08C353.211 496.198 353.589 495.504 353.715 495.504C353.841 495.504 353.967 495.157 353.967 494.716C353.967 494.274 354.125 493.928 354.283 493.928C354.472 493.928 354.598 493.77 354.598 493.612C354.598 493.423 355.134 492.131 355.827 490.68C358.097 485.857 358.696 484.438 358.696 484.154C358.696 483.965 358.853 483.839 359.011 483.839C359.2 483.839 359.326 483.65 359.326 483.461C359.326 483.24 359.799 482.073 360.398 480.844C362.573 476.399 364.054 473.12 364.054 472.805C364.054 472.647 364.212 472.489 364.37 472.489C364.559 472.489 364.685 472.142 364.685 471.701C364.685 471.26 364.842 470.913 365 470.913C365.189 470.913 365.315 470.755 365.315 470.598C365.315 470.314 366.45 467.792 369.129 462.211C369.634 461.171 370.044 460.131 370.044 459.942C370.044 459.721 370.201 459.563 370.359 459.563C370.548 459.563 370.674 459.406 370.674 459.216C370.674 459.027 371.084 457.987 371.588 456.915C373.574 452.722 374.772 450.042 374.772 449.758C374.772 449.601 374.929 449.475 375.087 449.475C375.276 449.475 375.402 449.254 375.402 449.002C375.402 448.749 375.528 448.277 375.717 447.961C375.875 447.678 376.726 445.849 377.64 443.957C378.523 442.034 379.595 439.796 380.004 438.976C380.414 438.125 380.761 437.242 380.761 436.99C380.761 436.738 380.919 436.549 381.076 436.549C381.265 436.549 381.391 436.391 381.391 436.233C381.391 435.95 382.81 432.797 384.638 428.982L385.332 427.563L388.641 427.5C390.47 427.469 394.788 427.28 398.256 427.09C405.821 426.681 418.366 426.176 429.147 425.829C441.44 425.42 453.482 424.947 456.413 424.694C457.895 424.6 462.844 424.379 467.446 424.222C489.007 423.496 493.861 423.307 499.44 423.024C502.75 422.834 506.659 422.677 508.203 422.677H510.946V485.731V548.784L548.866 548.721L586.756 548.627L586.85 274.406L586.913 0.215942H585.558C584.801 0.215942 584.076 0.310547 583.95 0.436646ZM510.946 254.953C510.946 348.746 510.946 350.795 510.347 351.079C510.032 351.268 507.699 351.489 505.24 351.584C502.75 351.678 499.157 351.899 497.234 352.056C495.342 352.214 490.141 352.561 485.728 352.845C481.315 353.097 476.619 353.381 475.326 353.475C474.034 353.57 470.692 353.79 467.919 353.948C465.145 354.137 459.534 354.484 455.467 354.768C451.401 355.02 445.948 355.367 443.332 355.493C429.777 356.249 425.711 356.502 422.906 356.785C418.745 357.195 418.272 357.195 418.272 356.628C418.272 356.376 418.429 356.155 418.587 356.155C418.776 356.155 418.902 355.871 418.902 355.524C418.902 355.178 419.06 354.894 419.217 354.894C419.407 354.894 419.533 354.736 419.533 354.516C419.533 354.2 420.604 351.71 421.613 349.755C421.865 349.251 422.054 348.652 422.054 348.399C422.054 348.147 422.181 347.958 422.307 347.958C422.433 347.958 422.811 347.233 423.158 346.382C423.504 345.499 423.883 344.805 424.009 344.805C424.135 344.805 424.261 344.616 424.261 344.364C424.261 344.112 424.482 343.513 424.734 343.008C424.986 342.535 425.364 341.653 425.585 341.085C425.806 340.549 426.089 340.076 426.215 340.076C426.373 340.076 426.467 339.824 426.467 339.509C426.467 339.193 426.688 338.657 426.94 338.311C427.192 337.995 427.413 337.459 427.413 337.144C427.413 336.86 427.571 336.608 427.728 336.608C427.917 336.608 428.044 336.419 428.044 336.198C428.044 336.009 428.422 335.095 428.832 334.244C429.273 333.361 429.62 332.478 429.62 332.258C429.62 332.068 429.777 331.879 429.935 331.879C430.124 331.879 430.25 331.753 430.25 331.595C430.25 331.28 431.889 327.497 432.457 326.457C432.646 326.141 432.772 325.668 432.772 325.416C432.772 325.164 432.898 324.943 433.024 324.943C433.15 324.943 433.528 324.218 433.875 323.367C434.222 322.484 434.6 321.791 434.726 321.791C434.852 321.791 434.978 321.601 434.978 321.381C434.978 321.192 435.325 320.277 435.766 319.426C436.176 318.543 436.554 317.661 436.554 317.44C436.554 317.251 436.712 317.062 436.87 317.062C437.059 317.062 437.185 316.809 437.185 316.494C437.185 316.179 437.406 315.643 437.658 315.296C437.91 314.981 438.131 314.445 438.131 314.13C438.131 313.846 438.257 313.594 438.383 313.594C438.509 313.594 438.887 312.868 439.234 312.017C439.581 311.134 439.959 310.441 440.085 310.441C440.211 310.441 440.337 310.22 440.337 309.936C440.337 309.653 441.031 307.982 441.882 306.216C444.529 300.699 445.065 299.501 445.065 299.154C445.065 298.934 445.223 298.776 445.381 298.776C445.57 298.776 445.696 298.492 445.696 298.145C445.696 297.799 445.853 297.515 446.011 297.515C446.2 297.515 446.326 297.294 446.326 297.01C446.326 296.727 446.547 296.128 446.799 295.686C447.587 294.205 448.848 291.304 448.848 290.957C448.848 290.737 448.974 290.579 449.1 290.579C449.226 290.579 449.604 289.854 449.951 289.003C450.298 288.12 450.676 287.426 450.802 287.426C450.928 287.426 451.054 287.079 451.054 286.638C451.054 286.197 451.212 285.85 451.37 285.85C451.559 285.85 451.685 285.661 451.685 285.44C451.685 285.251 452.252 283.927 452.946 282.54C453.639 281.152 454.207 279.828 454.207 279.608C454.207 279.418 454.364 279.229 454.522 279.229C454.711 279.229 454.837 279.009 454.837 278.788C454.837 278.536 455.184 277.653 455.625 276.833C456.066 276.013 456.413 275.162 456.413 274.942C456.413 274.689 456.571 274.5 456.728 274.5C456.917 274.5 457.044 274.343 457.044 274.122C457.044 273.775 457.8 272.073 459.408 268.668C460.322 266.745 462.591 261.858 463.947 258.957C464.483 257.759 464.924 256.656 464.924 256.498C464.924 256.341 465.082 256.215 465.239 256.215C465.428 256.215 465.554 256.025 465.554 255.773C465.554 255.553 465.901 254.701 466.342 253.882C466.784 253.062 467.131 252.179 467.131 251.927C467.131 251.706 467.288 251.486 467.446 251.486C467.635 251.486 467.761 251.328 467.761 251.139C467.761 250.918 468.234 249.752 468.833 248.522C469.4 247.292 470.125 245.716 470.44 245.023C470.756 244.329 471.481 242.784 472.048 241.618C472.647 240.42 473.12 239.253 473.12 239.001C473.12 238.749 473.246 238.56 473.403 238.56C473.561 238.56 473.813 238.244 473.939 237.834C474.065 237.456 474.475 236.416 474.885 235.501C475.295 234.619 475.641 233.704 475.641 233.547C475.641 233.358 475.799 233.2 475.957 233.2C476.146 233.2 476.272 233.011 476.272 232.759C476.272 232.538 476.619 231.687 477.06 230.867C477.501 230.047 477.848 229.164 477.848 228.912C477.848 228.692 478.006 228.471 478.163 228.471C478.352 228.471 478.478 228.313 478.478 228.124C478.478 227.903 479.046 226.579 479.739 225.129C480.433 223.679 481 222.355 481 222.165C481 222.008 481.158 221.85 481.315 221.85C481.504 221.85 481.631 221.503 481.631 221.062C481.631 220.621 481.757 220.274 481.883 220.274C482.009 220.274 482.387 219.549 482.734 218.698C483.081 217.815 483.459 217.121 483.585 217.121C483.711 217.121 483.837 216.901 483.837 216.617C483.837 216.333 484.026 215.734 484.278 215.293C485.445 213.054 486.989 209.649 486.989 209.303C486.989 209.113 487.147 208.924 487.304 208.924C487.494 208.924 487.62 208.798 487.62 208.609C487.62 208.325 488.219 206.906 490.488 202.083C491.182 200.633 491.717 199.34 491.717 199.151C491.717 198.993 491.875 198.836 492.033 198.836C492.222 198.836 492.348 198.489 492.348 198.047C492.348 197.606 492.474 197.259 492.6 197.259C492.726 197.259 493.104 196.534 493.451 195.683C493.798 194.8 494.176 194.107 494.302 194.107C494.428 194.107 494.554 193.917 494.554 193.728C494.554 193.508 494.901 192.593 495.342 191.679C495.784 190.765 496.477 189.251 496.919 188.337C497.36 187.423 497.707 186.509 497.707 186.288C497.707 186.099 497.864 185.91 498.022 185.91C498.211 185.91 498.337 185.783 498.337 185.594C498.337 185.437 498.904 184.113 499.598 182.631C500.291 181.181 500.859 179.762 500.859 179.478C500.859 179.194 500.953 178.974 501.111 178.974C501.363 178.974 502.435 176.672 502.435 176.136C502.435 175.947 502.592 175.821 502.75 175.821C502.939 175.821 503.065 175.632 503.065 175.411C503.065 175.159 503.507 174.087 504.042 172.952C504.578 171.849 505.429 170.02 505.965 168.885C506.501 167.75 507.258 166.142 507.667 165.322C508.077 164.471 508.424 163.588 508.424 163.336C508.424 163.084 508.519 162.895 508.676 162.895C508.802 162.895 509.181 162.233 509.496 161.382C510.063 159.963 510.567 159.112 510.82 159.112C510.883 159.112 510.946 202.24 510.946 254.953Z" fill="black"/>
<path d="M629.152 274.5V548.784H666.978H704.805V436.832V324.848L708.051 325.038C709.816 325.132 714.103 325.447 717.571 325.731C721.038 326.015 726.019 326.362 728.603 326.519C736.831 327.055 736.862 327.055 737.776 328.379C738.186 328.978 738.533 329.672 738.533 329.893C738.533 330.113 738.69 330.303 738.848 330.303C739.037 330.303 739.163 330.523 739.163 330.776C739.163 331.028 739.258 331.248 739.415 331.248C739.541 331.248 739.92 331.784 740.266 332.415C740.991 333.802 743.955 338.594 744.207 338.815C744.301 338.909 744.648 339.477 744.932 340.076C745.531 341.274 746.161 342.346 746.413 342.598C746.697 342.85 748.305 345.404 748.305 345.562C748.305 345.688 751.646 351.236 752.402 352.371C752.591 352.624 752.812 353.097 752.907 353.38C753.033 353.696 753.222 353.948 753.38 353.948C753.537 353.948 753.663 354.168 753.663 354.421C753.663 354.673 753.758 354.894 753.915 354.894C754.041 354.894 754.42 355.43 754.766 356.06C755.87 358.141 758.486 362.302 758.738 362.397C758.896 362.46 759.022 362.744 759.022 362.996C759.022 363.28 759.369 363.973 759.81 364.541C760.251 365.108 760.598 365.707 760.598 365.896C760.598 366.086 760.693 366.243 760.85 366.243C760.976 366.243 761.228 366.527 761.386 366.842C761.575 367.189 761.985 367.977 762.332 368.671C762.647 369.333 763.12 370.058 763.34 370.279C763.561 370.499 763.75 370.909 763.75 371.161C763.75 371.414 763.908 371.603 764.065 371.603C764.255 371.603 764.381 371.792 764.381 372.044C764.381 372.296 764.507 372.549 764.633 372.612C764.79 372.675 765.515 373.778 766.272 375.071C767.028 376.363 767.753 377.467 767.911 377.53C768.037 377.593 768.163 377.845 768.163 378.097C768.163 378.35 768.289 378.539 768.447 378.539C768.605 378.539 768.825 378.886 768.92 379.327C769.046 379.768 769.266 380.115 769.424 380.115C769.613 380.115 769.739 380.399 769.739 380.746C769.739 381.092 769.834 381.376 769.991 381.376C770.118 381.376 770.496 381.912 770.843 382.543C771.189 383.205 771.568 383.804 771.662 383.898C771.757 383.993 772.513 385.223 773.364 386.673C774.184 388.091 775.003 389.447 775.224 389.668C775.413 389.888 775.76 390.393 775.949 390.834C776.17 391.276 776.706 392.19 777.147 392.884C777.588 393.577 778.03 394.397 778.124 394.681C778.25 394.996 778.439 395.248 778.597 395.248C778.755 395.248 778.881 395.406 778.881 395.595C778.881 395.784 779.227 396.383 779.669 396.951C780.11 397.518 780.457 398.212 780.457 398.495C780.457 398.748 780.583 399.031 780.74 399.094C780.993 399.189 783.609 403.35 784.712 405.4C785.059 406.062 785.437 406.598 785.563 406.598C785.721 406.598 785.815 406.818 785.815 407.071C785.815 407.323 785.941 407.544 786.099 407.544C786.257 407.544 786.446 407.796 786.572 408.08C786.666 408.395 787.076 409.151 787.455 409.782C787.864 410.413 789.251 412.682 790.512 414.826C791.805 416.97 792.939 418.799 793.034 418.893C793.191 419.019 793.79 420.028 794.768 421.888C794.957 422.235 795.209 422.582 795.303 422.676C795.398 422.771 795.745 423.339 796.091 423.938C796.407 424.537 796.753 425.104 796.848 425.199C797.132 425.482 798.582 427.847 799.212 429.045C799.559 429.707 799.937 430.243 800.063 430.243C800.221 430.243 800.315 430.401 800.315 430.558C800.315 430.873 801.45 432.86 802.774 434.846C802.995 435.161 803.247 435.697 803.341 435.981C803.468 436.296 803.657 436.548 803.814 436.548C803.972 436.548 804.098 436.706 804.098 436.895C804.098 437.084 804.445 437.683 804.886 438.251C805.327 438.818 805.674 439.386 805.674 439.512C805.674 439.606 806.525 441.057 807.565 442.728C808.606 444.367 809.457 445.849 809.457 446.038C809.457 446.196 809.583 446.322 809.74 446.322C809.898 446.322 810.087 446.574 810.213 446.858C810.402 447.457 811.064 448.592 811.38 448.844C811.569 449.001 812.546 450.672 813.744 452.942C814.09 453.541 814.406 454.109 814.5 454.203C814.815 454.519 816.896 457.861 817.495 458.995C817.841 459.658 818.188 460.194 818.314 460.194C818.44 460.194 818.598 460.446 818.724 460.761C818.882 461.297 819.544 462.4 819.859 462.716C819.985 462.842 820.615 463.945 821.561 465.711C821.75 466.058 822.002 466.404 822.097 466.499C822.191 466.593 822.885 467.728 823.641 469.021C824.398 470.314 825.123 471.417 825.281 471.48C825.407 471.543 825.533 471.795 825.533 472.048C825.533 472.3 825.659 472.489 825.785 472.489C825.911 472.489 826.195 472.867 826.384 473.34C826.825 474.381 827.739 475.925 828.307 476.524C828.496 476.745 828.685 477.155 828.685 477.407C828.685 477.659 828.843 477.849 829 477.849C829.189 477.849 829.315 478.006 829.315 478.195C829.315 478.385 829.662 478.984 830.103 479.551C830.545 480.119 830.891 480.686 830.891 480.812C830.891 481.001 832.436 483.523 832.783 483.839C832.877 483.933 833.161 484.438 833.445 484.942C834.233 486.487 834.832 487.464 835.021 487.622C835.147 487.717 835.305 488.095 835.431 488.473C835.557 488.883 835.809 489.198 835.966 489.198C836.124 489.198 836.25 489.419 836.25 489.671C836.25 489.923 836.345 490.144 836.502 490.144C836.628 490.144 837.007 490.68 837.353 491.311C837.7 491.973 838.803 493.833 839.812 495.441C840.821 497.049 841.987 499.035 842.46 499.854C842.901 500.674 843.374 501.399 843.469 501.494C843.721 501.714 844.32 502.723 844.982 504.016C845.265 504.615 845.612 505.182 845.707 505.277C845.833 505.372 846.18 505.939 846.526 506.538C846.841 507.137 847.22 507.705 847.314 507.799C847.409 507.894 848.102 509.029 848.859 510.321C849.615 511.614 850.34 512.749 850.498 512.78C850.624 512.843 850.75 513.033 850.75 513.19C850.75 513.379 851.255 514.294 851.853 515.24C852.452 516.185 852.957 517.1 852.957 517.257C852.957 517.446 853.083 517.573 853.24 517.573C853.398 517.573 853.65 517.888 853.776 518.266C853.902 518.676 854.06 519.054 854.186 519.149C854.407 519.338 854.722 519.842 856.266 522.522C856.865 523.594 857.559 524.666 857.78 524.887C857.969 525.139 858.378 525.738 858.662 526.242C859.513 527.882 860.049 528.765 860.238 528.922C860.364 529.017 860.522 529.395 860.648 529.773C860.774 530.183 861.026 530.499 861.184 530.499C861.341 530.499 861.468 530.719 861.468 530.971C861.468 531.224 861.594 531.444 861.72 531.444C861.877 531.444 862.161 531.823 862.382 532.296C862.602 532.8 863.706 534.629 864.809 536.394C865.912 538.191 866.826 539.704 866.826 539.799C866.826 539.988 868.434 542.51 868.718 542.794C869.033 543.109 869.695 544.213 869.852 544.749C869.978 545.064 870.168 545.316 870.325 545.316C870.483 545.316 870.609 545.442 870.609 545.631C870.609 545.789 870.987 546.577 871.46 547.365L872.343 548.784H916.063C944.874 548.784 959.847 548.69 959.973 548.469C960.068 548.28 960.036 548.154 959.847 548.154C959.689 548.154 959.437 547.838 959.311 547.429C959.185 547.05 959.027 546.672 958.901 546.577C958.586 546.325 957.924 545.19 957.735 544.591C957.609 544.307 957.42 544.055 957.262 544.055C957.105 544.055 956.978 543.771 956.978 543.456C956.978 543.109 956.852 542.794 956.726 542.731C956.569 542.699 955.907 541.722 955.245 540.587C954.583 539.452 953.29 537.34 952.376 535.858C951.494 534.376 950.58 532.832 950.359 532.39C950.138 531.949 949.855 531.539 949.76 531.444C949.665 531.35 949.287 530.751 948.972 530.089C948.625 529.458 948.247 528.922 948.089 528.922C947.963 528.922 947.837 528.638 947.837 528.292C947.837 527.945 947.711 527.661 947.553 527.661C947.396 527.661 947.175 527.314 947.081 526.873C946.955 526.432 946.734 526.085 946.576 526.085C946.387 526.085 946.261 525.864 946.261 525.612C946.261 525.36 946.135 525.139 945.946 525.139C945.788 525.139 945.631 524.95 945.631 524.698C945.631 524.445 945.441 524.036 945.221 523.815C945 523.594 944.527 522.869 944.212 522.207C943.865 521.513 943.456 520.725 943.267 520.378C943.109 520.063 942.857 519.779 942.731 519.779C942.573 519.779 942.478 519.653 942.478 519.464C942.478 519.307 942.006 518.424 941.438 517.509C940.839 516.595 940.02 515.208 939.578 514.42C938.412 512.371 933.873 504.836 933.652 504.646C933.526 504.52 932.927 503.48 931.95 501.651C931.761 501.305 931.509 500.958 931.414 500.863C931.288 500.769 931.131 500.39 931.005 499.981C930.878 499.602 930.626 499.287 930.469 499.287C930.311 499.287 930.185 499.129 930.185 498.972C930.185 498.782 929.681 497.837 929.082 496.891C928.483 495.945 927.978 495.062 927.978 494.905C927.978 494.747 927.852 494.558 927.695 494.495C927.474 494.4 926.875 493.391 925.015 489.986C924.826 489.64 924.606 489.293 924.511 489.198C924.29 489.009 919.751 481.474 918.585 479.425C918.144 478.637 917.702 477.943 917.608 477.849C917.513 477.754 917.198 477.25 916.914 476.745C916.189 475.39 915.559 474.255 915.37 474.065C915.118 473.813 914.487 472.741 913.888 471.543C913.605 470.944 913.163 470.251 912.943 470.03C912.722 469.809 912.533 469.399 912.533 469.147C912.533 468.895 912.407 468.706 912.218 468.706C912.06 468.706 911.902 468.517 911.902 468.264C911.902 468.012 911.776 467.76 911.65 467.697C911.398 467.602 910.641 466.404 909.191 463.661C908.845 463.062 908.498 462.495 908.403 462.4C908.277 462.306 907.931 461.738 907.615 461.139C906.764 459.563 903.297 453.762 903.076 453.573C902.982 453.478 902.635 452.911 902.32 452.312C901.973 451.713 901.626 451.145 901.5 451.051C901.406 450.956 901.027 450.357 900.681 449.695C899.546 447.394 899.451 447.267 899.231 447.267C899.073 447.267 898.978 447.078 898.978 446.826C898.978 446.574 898.789 446.164 898.6 445.943C898.38 445.723 897.97 445.092 897.718 444.588C897.465 444.052 897.056 443.453 896.866 443.232C896.646 443.011 896.457 442.602 896.457 442.349C896.457 442.097 896.331 441.908 896.141 441.908C895.984 441.908 895.826 441.782 895.826 441.593C895.826 441.435 895.196 440.269 894.408 439.07C893.62 437.841 892.737 436.391 892.422 435.823C890.909 433.08 887.158 426.933 886.937 426.838C886.811 426.775 886.685 426.586 886.685 426.428C886.685 426.271 886.307 425.545 885.865 424.852C885.424 424.127 884.699 422.897 884.258 422.109C883.816 421.289 883.344 420.564 883.249 420.47C883.091 420.343 882.556 419.398 881.515 417.475C881.326 417.128 881.074 416.781 880.98 416.686C880.853 416.592 880.696 416.213 880.57 415.804C880.444 415.425 880.191 415.11 880.034 415.11C879.876 415.11 879.75 414.984 879.75 414.826C879.75 414.637 878.899 413.155 877.859 411.516C876.819 409.845 875.968 408.426 875.968 408.332C875.968 408.237 875.243 407.008 874.36 405.589C873.477 404.17 872.374 402.373 871.933 401.585C871.491 400.797 871.05 400.072 870.956 399.977C870.798 399.851 870.262 398.905 869.222 396.982C869.033 396.635 868.812 396.288 868.718 396.194C868.402 395.879 867.74 394.775 867.583 394.208C867.457 393.924 867.268 393.672 867.11 393.672C866.952 393.672 866.826 393.388 866.826 393.041C866.826 392.694 866.732 392.411 866.574 392.411C866.448 392.411 866.07 391.875 865.723 391.213C865.376 390.582 865.03 389.983 864.935 389.888C864.683 389.636 864.052 388.564 863.453 387.366C863.17 386.767 862.728 386.074 862.508 385.853C862.287 385.632 862.098 385.223 862.098 384.97C862.098 384.718 861.972 384.529 861.846 384.529C861.688 384.529 861.405 384.214 861.215 383.804C860.806 383.047 860.364 382.29 858.599 379.327C857.969 378.287 856.424 375.67 855.163 373.494C853.871 371.319 852.768 369.491 852.673 369.396C852.358 369.112 851.696 367.977 851.507 367.41C851.381 367.126 851.191 366.874 851.034 366.874C850.876 366.874 850.75 366.59 850.75 366.243C850.75 365.896 850.624 365.613 850.466 365.613C850.309 365.613 850.12 365.361 849.994 365.045C849.836 364.509 849.174 363.406 848.859 363.091C848.607 362.838 847.976 361.735 847.377 360.568C847.094 359.969 846.747 359.402 846.621 359.307C846.495 359.213 846.085 358.582 845.738 357.889C845.36 357.195 844.477 355.713 843.752 354.578C843.059 353.443 842.145 351.93 841.735 351.173C840.884 349.66 839.97 348.178 839.718 347.958C839.623 347.863 839.276 347.233 838.93 346.539C838.583 345.845 838.236 345.215 838.141 345.12C838.047 345.026 837.7 344.458 837.385 343.859C837.038 343.26 836.691 342.693 836.597 342.598C836.439 342.472 835.872 341.495 834.863 339.603C834.674 339.256 834.453 338.909 834.359 338.815C834.138 338.594 833.445 337.459 833.193 336.923C833.066 336.671 832.909 336.387 832.814 336.293C832.657 336.167 832.089 335.189 831.081 333.298C830.891 332.951 830.671 332.604 830.576 332.509C830.356 332.32 826.384 325.668 825.281 323.682C824.839 322.894 824.209 321.853 823.894 321.38C823.169 320.34 823.547 319.583 824.776 319.583C825.186 319.583 825.533 319.489 825.533 319.331C825.533 319.205 826.195 318.858 827.046 318.543C827.865 318.228 829.032 317.66 829.631 317.345C830.23 316.998 830.986 316.62 831.301 316.525C831.585 316.431 831.837 316.242 831.837 316.084C831.837 315.926 832.026 315.8 832.215 315.8C832.657 315.8 835.998 314.192 836.25 313.877C836.345 313.751 837.196 313.278 838.141 312.774C839.087 312.269 839.938 311.765 840.033 311.67C840.127 311.576 840.695 311.229 841.294 310.882C842.838 310.031 846.778 307.256 846.905 306.91C846.968 306.784 847.157 306.657 847.346 306.657C847.503 306.657 847.85 306.468 848.071 306.248C849.111 305.333 849.489 305.081 849.805 305.081C849.962 305.081 850.12 304.955 850.12 304.797C850.12 304.64 850.372 304.419 850.719 304.293C851.034 304.198 851.727 303.725 852.2 303.253C852.705 302.78 853.745 301.897 854.533 301.298C858.252 298.366 867.74 288.908 870.609 285.219C871.208 284.431 871.838 283.643 872.027 283.454C872.185 283.264 872.689 282.602 873.131 281.972C873.572 281.341 874.013 280.805 874.171 280.805C874.297 280.805 874.391 280.648 874.391 280.49C874.391 280.301 874.738 279.765 875.18 279.292C875.621 278.819 875.968 278.346 875.968 278.189C875.968 278.062 876.314 277.558 876.756 277.085C877.197 276.612 877.544 276.076 877.544 275.856C877.544 275.666 877.638 275.446 877.796 275.383C878.174 275.225 879.75 272.987 879.75 272.64C879.75 272.451 879.876 272.293 880.065 272.293C880.223 272.293 880.444 271.946 880.57 271.505C880.664 271.064 880.885 270.717 881.043 270.717C881.2 270.717 881.326 270.528 881.326 270.275C881.326 270.023 881.421 269.771 881.578 269.708C881.705 269.645 882.083 269.046 882.43 268.352C882.776 267.659 883.123 267.028 883.218 266.933C883.47 266.681 884.1 265.609 884.699 264.411C884.983 263.812 885.55 262.772 885.96 262.141C886.37 261.479 886.685 260.754 886.685 260.47C886.685 260.218 886.811 259.998 886.937 259.998C887.063 259.998 887.441 259.272 887.788 258.421C888.135 257.538 888.513 256.845 888.639 256.845C888.765 256.845 888.891 256.624 888.891 256.34C888.891 256.057 889.081 255.458 889.333 255.016C889.553 254.543 889.9 253.818 890.089 253.377C890.247 252.936 890.783 251.769 891.224 250.76C891.665 249.751 892.044 248.806 892.044 248.648C892.044 248.459 892.17 248.08 892.327 247.765C892.485 247.481 892.863 246.599 893.147 245.81C893.462 245.022 893.809 244.108 893.935 243.761C894.093 243.414 894.439 242.406 894.723 241.554C895.007 240.672 895.385 239.726 895.543 239.442C895.7 239.127 895.826 238.528 895.826 238.118C895.826 237.677 895.952 237.014 896.11 236.605C896.425 235.848 897.182 233.294 897.686 231.308C897.844 230.709 898.222 229.007 898.506 227.525C898.789 226.043 899.136 224.341 899.294 223.742C899.451 223.143 899.672 222.134 899.766 221.535C900.618 216.144 900.933 213.779 901.185 211.604C901.343 210.217 901.595 207.726 901.784 206.087C902.194 202.366 902.194 183.892 901.784 180.077C901.626 178.5 901.343 175.947 901.185 174.402C900.933 171.911 900.428 168.034 899.766 163.525C899.64 162.737 899.451 161.823 899.294 161.476C899.168 161.129 898.758 159.269 898.38 157.377C897.655 153.752 897.465 152.932 896.614 149.811C896.331 148.771 896.015 147.478 895.921 146.974C895.858 146.438 895.669 145.744 895.543 145.397C895.385 145.05 895.038 143.978 894.755 143.033C894.439 142.087 894.093 141.015 893.935 140.668C893.809 140.321 893.431 139.186 893.115 138.146C892.8 137.106 892.422 136.128 892.296 135.939C892.17 135.781 892.044 135.34 892.044 134.962C892.044 134.552 891.918 134.174 891.76 134.048C891.602 133.953 891.35 133.417 891.224 132.881C891.13 132.314 890.909 131.651 890.783 131.368C890.531 130.863 890.278 130.264 889.364 127.9C887.662 123.549 882.051 111.758 881.578 111.569C881.421 111.506 881.326 111.19 881.326 110.875C881.326 110.56 881.232 110.245 881.106 110.182C880.948 110.119 880.57 109.52 880.223 108.826C879.876 108.132 879.088 106.714 878.458 105.673C877.859 104.633 876.787 102.867 876.125 101.732C875.463 100.597 874.801 99.6201 874.644 99.5886C874.518 99.5255 874.391 99.2733 874.391 99.0211C874.391 98.7689 874.265 98.5797 874.076 98.5797C873.919 98.5797 873.761 98.4221 873.761 98.2014C873.761 98.0122 873.572 97.6024 873.32 97.3502C873.068 97.0664 872.658 96.4989 872.437 96.0576C871.901 95.0802 868.97 90.6665 868.56 90.1935C868.402 90.0044 867.898 89.4054 867.457 88.8379C867.015 88.2704 866.511 87.6399 866.353 87.4507C866.164 87.23 865.471 86.2842 864.777 85.3384C864.084 84.3926 863.359 83.4153 863.138 83.1946C862.918 82.9739 862.224 82.1227 861.562 81.3029C860.9 80.4833 860.238 79.6636 860.049 79.4744C859.891 79.2537 859.23 78.4971 858.631 77.7404C855.731 74.0833 846.747 65.1296 841.577 60.7159C840.632 59.8962 839.245 58.6666 838.457 57.9415C837.669 57.2479 836.944 56.6489 836.818 56.6489C836.691 56.6489 836.187 56.2706 835.683 55.7661C835.21 55.2932 834.264 54.5681 833.634 54.1268C833.003 53.6854 832.468 53.244 832.468 53.0864C832.468 52.9603 832.31 52.8657 832.152 52.8657C831.963 52.8657 831.427 52.5189 830.955 52.0775C830.482 51.6361 829.977 51.2893 829.82 51.2893C829.662 51.2893 829.315 51.0371 829.032 50.7218C828.748 50.4066 827.739 49.6815 826.794 49.0825C825.848 48.4834 825.028 47.8844 824.965 47.7583C824.902 47.6007 824.65 47.5061 824.398 47.5061C824.146 47.5061 823.957 47.4115 823.957 47.2539C823.957 47.1278 823.106 46.5288 822.065 45.9297C821.025 45.3307 820.174 44.7317 820.174 44.5741C820.174 44.448 819.953 44.3534 819.701 44.3534C819.449 44.3534 819.228 44.1958 819.228 44.0381C819.228 43.849 818.945 43.7229 818.598 43.7229C818.251 43.7229 817.968 43.5968 817.968 43.4391C817.968 43.2815 817.652 43.0293 817.274 42.9032C816.864 42.7771 816.486 42.6194 816.391 42.4933C816.171 42.2411 815.194 41.6421 813.87 40.98C813.271 40.6963 812.703 40.381 812.609 40.2864C812.294 39.9396 810.339 38.9938 809.93 38.9938C809.709 38.9938 809.457 38.8677 809.394 38.7101C809.299 38.3948 801.072 34.3594 798.55 33.3505C797.668 33.0037 796.312 32.4362 795.556 32.121C793.79 31.3013 790.638 30.1663 789.598 29.9456C789.157 29.851 788.684 29.6619 788.495 29.5358C788.18 29.2836 784.46 28.1486 780.93 27.1713C779.889 26.8875 778.786 26.5407 778.502 26.3516C778.187 26.1939 777.525 26.0678 777.052 26.0678C776.548 26.0678 776.044 25.9732 775.918 25.8471C775.791 25.6895 774.72 25.4057 773.585 25.1851C772.419 24.9644 770.843 24.6491 770.055 24.4915C764.664 23.4196 761.481 22.8521 757.919 22.2845C756.878 22.127 754.893 21.7486 753.506 21.4648C752.119 21.2126 750.133 20.8974 749.093 20.8028C748.052 20.7082 747.075 20.519 746.886 20.3615C746.728 20.2038 746.098 20.0777 745.468 20.0777C744.869 20.0777 743.828 19.92 743.198 19.7624C742.568 19.5732 741.055 19.2895 739.888 19.1003C738.722 18.9427 737.051 18.6905 736.169 18.5328C735.318 18.4067 733.458 18.123 732.071 17.9023C730.684 17.6816 729.297 17.3663 729.013 17.2087C728.698 17.0511 727.878 16.925 727.153 16.925C726.428 16.925 725.325 16.7989 724.695 16.6412C724.064 16.4521 722.205 16.1053 720.565 15.8215C718.926 15.5693 716.877 15.191 715.995 15.0334C714.639 14.7811 711.802 14.3082 707.641 13.6147C707.043 13.5201 705.908 13.2994 705.12 13.1733C704.332 13.0156 702.44 12.7319 700.864 12.5112C699.32 12.2905 697.744 12.0068 697.397 11.8491C697.05 11.723 696.136 11.5339 695.348 11.4708C694.56 11.3762 692.669 11.0925 691.093 10.7772C689.548 10.462 687.468 10.1152 686.522 9.98907C685.576 9.86298 683.527 9.51617 681.951 9.20087C678.925 8.63342 676.908 8.28662 673.598 7.78217C667.924 6.89941 666.695 6.64722 666.474 6.42651C666.348 6.30042 665.749 6.20581 665.15 6.20581C664.551 6.20581 663.543 6.07971 662.912 5.92212C662.282 5.76447 660.643 5.44916 659.256 5.22852C655.757 4.72406 653.739 4.37726 652.636 4.15656C652.132 4.06201 650.43 3.7467 648.853 3.49451C647.309 3.24231 645.323 2.89551 644.44 2.73785C643.589 2.58026 642.455 2.39105 641.919 2.29651C641.414 2.23346 639.775 1.91815 638.294 1.6344C636.812 1.35071 634.763 1.0354 633.723 0.940857C632.683 0.846252 631.706 0.657104 631.548 0.499451C631.359 0.341797 630.76 0.215698 630.193 0.215698H629.152V274.5ZM708.24 89.1216C713.158 89.9413 715.806 90.3827 716.94 90.5403C721.448 91.1078 722.961 91.3285 725.924 91.8014C727.752 92.0852 730.148 92.432 731.283 92.5896C733.111 92.8418 735.885 93.2517 742.158 94.166C743.198 94.3236 745.468 94.6704 747.201 94.9226C748.935 95.2063 751.425 95.5847 752.718 95.7738C757.919 96.4989 758.99 96.6566 762.016 97.1295C763.75 97.4132 766.02 97.76 767.06 97.9177C769.077 98.2014 774.531 99.4309 775.571 99.8093C777.273 100.44 779.48 101.102 779.952 101.102C780.236 101.102 780.457 101.228 780.457 101.417C780.457 101.575 780.74 101.732 781.087 101.732C781.434 101.732 781.97 101.859 782.285 102.016C783.546 102.71 784.996 103.309 785.406 103.309C785.626 103.309 785.815 103.435 785.815 103.624C785.815 103.782 785.973 103.939 786.162 103.939C787.297 103.939 798.172 110.15 799.906 111.789C800.284 112.168 800.694 112.452 800.788 112.452C800.914 112.452 801.166 112.641 801.419 112.83C801.639 113.051 802.207 113.523 802.68 113.839C803.625 114.564 804.413 115.194 806.052 116.739C806.683 117.338 807.282 117.811 807.376 117.811C807.565 117.811 814.815 125.094 814.815 125.283C814.815 125.409 815.32 126.04 816.234 127.049C816.612 127.427 817.526 128.593 818.283 129.634C819.071 130.674 819.953 131.809 820.269 132.124C820.552 132.471 820.805 132.849 820.805 132.976C820.805 133.102 820.994 133.417 821.214 133.638C821.845 134.237 823.957 137.642 823.957 137.988C823.957 138.178 824.083 138.304 824.24 138.304C824.398 138.304 824.619 138.65 824.713 139.092C824.839 139.533 825.06 139.88 825.218 139.88C825.407 139.88 825.533 140.069 825.533 140.321C825.533 140.574 825.627 140.826 825.785 140.889C826.069 141.015 829.315 147.509 829.315 147.982C829.315 148.172 829.41 148.392 829.568 148.455C829.914 148.613 830.891 150.851 830.891 151.545C830.891 151.892 831.049 152.175 831.207 152.175C831.396 152.175 831.522 152.428 831.522 152.711C831.522 153.027 831.743 153.689 831.995 154.193C832.247 154.666 832.468 155.328 832.468 155.612C832.468 155.927 832.562 156.274 832.688 156.369C833.003 156.715 834.044 159.805 834.044 160.436C834.044 160.751 834.17 161.255 834.327 161.57C834.863 162.611 836.25 168.601 836.25 169.925C836.25 170.398 836.376 171.029 836.534 171.344C836.912 172.006 837.511 177.838 837.732 183.072C837.921 187.107 837.164 197.385 836.565 198.678C836.408 199.025 836.219 199.939 836.156 200.727C835.966 202.303 835.336 205.015 834.044 209.397C833.602 210.91 832.909 212.676 832.688 212.896C832.562 213.022 832.468 213.306 832.468 213.527C832.468 214.378 828.212 223.269 827.424 224.057C827.109 224.372 826.447 225.476 826.289 226.012C826.163 226.327 825.974 226.579 825.816 226.579C825.659 226.579 825.533 226.737 825.533 226.894C825.533 227.178 823.452 230.173 822.538 231.182C822.381 231.371 821.813 232.033 821.34 232.664C818.598 236.163 812.956 241.334 809.141 243.856C808.196 244.518 807.376 245.117 807.313 245.243C807.25 245.401 806.998 245.495 806.746 245.495C806.494 245.495 806.305 245.621 806.305 245.747C806.305 245.874 805.485 246.409 804.508 246.914C803.499 247.45 802.616 247.954 802.522 248.049C802.364 248.206 798.928 249.877 797.258 250.571C796.848 250.729 796.218 250.981 795.839 251.138C795.43 251.296 794.326 251.674 793.381 251.958C792.435 252.242 791.363 252.589 791.016 252.746C789.819 253.282 783.672 254.638 782.443 254.638C781.781 254.638 781.056 254.796 780.898 254.953C780.677 255.174 777.777 255.237 772.387 255.142C764.381 255.016 762.521 254.89 752.245 253.85C749.471 253.566 745.846 253.219 744.207 253.062C742.568 252.904 740.519 252.683 739.636 252.589C738.785 252.494 735.664 252.21 732.701 251.958C729.77 251.674 726.397 251.328 725.199 251.17C724.033 250.981 722.331 250.855 721.448 250.855C720.565 250.855 718.958 250.729 717.918 250.539C716.846 250.382 714.166 250.067 711.897 249.877C709.659 249.688 707.137 249.436 706.318 249.373L704.805 249.215V169.011V88.8064H705.656C706.128 88.8064 707.295 88.9325 708.24 89.1216Z" fill="black"/>
</svg>
