<?xml version="1.0" standalone="no"?>
<!DOCTYPE svg PUBLIC "-//W3C//DTD SVG 20010904//EN"
 "http://www.w3.org/TR/2001/REC-SVG-20010904/DTD/svg10.dtd">
<svg version="1.0" xmlns="http://www.w3.org/2000/svg"
 width="3404.000000pt" height="2934.000000pt" viewBox="0 0 3404.000000 2934.000000"
 preserveAspectRatio="xMidYMid meet">

<g transform="translate(0.000000,2934.000000) scale(0.100000,-0.100000)"
fill="#000000" stroke="none">
<path d="M17066 23363 c-4 -4 -33 -10 -64 -14 -50 -6 -145 -22 -292 -49 -25
-5 -72 -13 -105 -19 -178 -30 -255 -43 -305 -51 -30 -5 -98 -16 -150 -26 -52
-9 -115 -18 -140 -21 -25 -2 -54 -8 -65 -12 -18 -8 -75 -18 -235 -42 -104 -15
-185 -29 -205 -35 -18 -6 -47 -11 -200 -34 -109 -16 -190 -30 -210 -37 -11 -3
-47 -10 -80 -14 -33 -4 -100 -15 -150 -24 -49 -9 -114 -19 -142 -22 -29 -3
-53 -9 -53 -13 0 -4 -26 -10 -57 -13 -68 -5 -191 -25 -248 -39 -35 -8 -44 -16
-63 -58 -12 -26 -22 -53 -22 -59 0 -6 -4 -11 -10 -11 -5 0 -10 -5 -10 -11 0
-11 -8 -30 -54 -132 -14 -32 -26 -62 -26 -67 0 -6 -4 -10 -10 -10 -5 0 -10 -6
-10 -13 0 -8 -6 -27 -14 -43 -14 -28 -62 -133 -93 -204 -19 -42 -63 -138 -92
-201 -11 -25 -21 -50 -21 -56 0 -6 -3 -13 -7 -15 -11 -4 -43 -75 -43 -93 0 -8
-4 -15 -10 -15 -5 0 -10 -9 -10 -19 0 -11 -4 -22 -9 -26 -5 -3 -12 -19 -16
-35 -4 -17 -11 -30 -16 -30 -5 0 -9 -6 -9 -13 0 -7 -11 -37 -25 -65 -14 -29
-25 -56 -25 -62 0 -5 -4 -10 -10 -10 -5 0 -10 -6 -10 -14 0 -8 -16 -50 -36
-93 -20 -43 -47 -103 -60 -133 -14 -30 -32 -68 -40 -83 -8 -16 -14 -35 -14
-43 0 -8 -4 -14 -10 -14 -5 0 -10 -4 -10 -10 0 -5 -12 -35 -26 -67 -15 -32
-37 -80 -49 -108 -13 -27 -30 -66 -38 -85 -8 -19 -29 -64 -45 -100 -16 -36
-39 -87 -52 -115 -12 -27 -31 -68 -41 -89 -11 -22 -19 -46 -19 -53 0 -7 -4
-13 -10 -13 -5 0 -10 -5 -10 -11 0 -7 -15 -44 -34 -83 -18 -39 -41 -89 -51
-111 -23 -53 -61 -138 -91 -200 -13 -28 -24 -56 -24 -63 0 -6 -4 -12 -10 -12
-5 0 -10 -8 -10 -18 0 -10 -4 -22 -8 -27 -5 -6 -19 -35 -32 -65 -12 -30 -37
-86 -55 -125 -80 -169 -105 -227 -105 -241 0 -8 -4 -14 -10 -14 -5 0 -10 -9
-10 -20 0 -11 -4 -20 -10 -20 -5 0 -10 -5 -10 -11 0 -12 -18 -54 -56 -134 -13
-28 -24 -56 -24 -63 0 -6 -4 -12 -10 -12 -5 0 -10 -6 -10 -13 0 -7 -8 -31 -19
-53 -39 -82 -61 -133 -61 -143 0 -6 -4 -11 -10 -11 -5 0 -10 -6 -10 -13 0 -7
-8 -31 -19 -53 -10 -21 -26 -57 -36 -79 -9 -22 -28 -62 -41 -88 -13 -27 -24
-55 -24 -63 0 -8 -4 -14 -9 -14 -5 0 -12 -13 -16 -30 -4 -16 -11 -32 -16 -35
-5 -4 -9 -15 -9 -26 0 -10 -4 -19 -10 -19 -5 0 -10 -8 -10 -18 0 -10 -7 -27
-15 -38 -8 -10 -15 -27 -15 -36 0 -10 -4 -18 -10 -18 -5 0 -10 -7 -10 -14 0
-8 -11 -36 -25 -62 -14 -26 -25 -53 -25 -60 0 -8 -4 -14 -9 -14 -5 0 -11 -10
-14 -22 -7 -30 -31 -92 -38 -98 -3 -3 -14 -26 -25 -52 -10 -27 -22 -48 -26
-48 -5 0 -8 -7 -8 -15 0 -8 -4 -23 -10 -33 -22 -41 -79 -171 -86 -196 -3 -14
-10 -26 -15 -26 -5 0 -9 -8 -9 -17 0 -10 -7 -27 -15 -37 -8 -11 -15 -28 -15
-38 0 -10 -4 -18 -10 -18 -5 0 -10 -6 -10 -14 0 -8 -11 -36 -24 -63 -13 -26
-31 -64 -39 -83 -8 -19 -31 -70 -51 -113 -20 -43 -36 -83 -36 -88 0 -5 -4 -9
-10 -9 -5 0 -10 -11 -10 -25 0 -14 -4 -25 -10 -25 -5 0 -10 -5 -10 -11 0 -6
-14 -41 -31 -78 -30 -65 -42 -90 -93 -203 -14 -32 -37 -82 -51 -111 -14 -29
-25 -58 -25 -65 0 -6 -4 -12 -10 -12 -5 0 -10 -8 -10 -18 0 -10 -4 -22 -8 -27
-5 -6 -24 -46 -42 -90 -19 -44 -38 -81 -42 -83 -4 -2 -8 -15 -8 -28 0 -13 -4
-24 -10 -24 -5 0 -10 -4 -10 -9 0 -6 -18 -49 -40 -96 -22 -47 -40 -93 -40
-101 0 -8 -4 -14 -10 -14 -5 0 -10 -5 -10 -12 0 -11 -10 -34 -71 -164 -16 -33
-29 -66 -29 -72 0 -7 -4 -12 -10 -12 -5 0 -10 -8 -10 -18 0 -10 -4 -22 -8 -28
-5 -5 -24 -45 -42 -89 -19 -44 -38 -81 -42 -83 -4 -2 -8 -15 -8 -28 0 -13 -4
-24 -10 -24 -5 0 -10 -4 -10 -10 0 -10 -42 -106 -66 -152 -8 -14 -14 -33 -14
-42 0 -9 -4 -16 -10 -16 -5 0 -10 -9 -10 -20 0 -11 -4 -20 -9 -20 -5 0 -12
-13 -16 -30 -4 -16 -11 -32 -16 -35 -5 -4 -9 -15 -9 -26 0 -10 -4 -19 -10 -19
-5 0 -10 -8 -10 -18 0 -10 -7 -27 -15 -38 -8 -10 -15 -27 -15 -36 0 -10 -4
-18 -10 -18 -5 0 -10 -6 -10 -14 0 -8 -12 -38 -26 -68 -15 -29 -30 -62 -35
-73 -4 -11 -26 -59 -48 -108 -23 -48 -41 -92 -41 -97 0 -6 -4 -10 -10 -10 -5
0 -10 -11 -10 -25 0 -14 -4 -25 -10 -25 -5 0 -10 -5 -10 -11 0 -13 -23 -65
-56 -130 -13 -26 -24 -54 -24 -63 0 -9 -4 -16 -10 -16 -5 0 -10 -8 -10 -17 0
-10 -7 -27 -15 -37 -8 -11 -15 -28 -15 -38 0 -10 -4 -18 -10 -18 -5 0 -10 -5
-10 -11 0 -5 -12 -36 -26 -67 -14 -31 -32 -70 -39 -87 -7 -16 -29 -65 -49
-108 -20 -43 -36 -83 -36 -88 0 -5 -4 -9 -10 -9 -5 0 -10 -11 -10 -25 0 -14
-4 -25 -10 -25 -5 0 -10 -5 -10 -11 0 -10 -22 -61 -61 -145 -10 -22 -19 -46
-19 -52 0 -7 -4 -12 -10 -12 -5 0 -10 -6 -10 -12 0 -7 -11 -35 -24 -63 -13
-27 -35 -75 -48 -105 -14 -30 -41 -89 -60 -130 -19 -41 -43 -96 -54 -122 -10
-27 -22 -48 -26 -48 -5 0 -8 -11 -8 -25 0 -14 -4 -25 -10 -25 -5 0 -10 -4 -10
-10 0 -10 -39 -101 -66 -153 -8 -16 -14 -35 -14 -43 0 -8 -4 -14 -10 -14 -5 0
-10 -6 -10 -12 0 -7 -11 -35 -25 -63 -13 -27 -25 -56 -25 -62 0 -7 -4 -13 -10
-13 -5 0 -10 -6 -10 -14 0 -8 -7 -27 -15 -43 -27 -52 -65 -142 -65 -152 0 -6
-4 -11 -10 -11 -5 0 -10 -6 -10 -13 0 -13 -19 -59 -41 -99 -5 -10 -9 -25 -9
-33 0 -8 -4 -15 -8 -15 -4 0 -16 -22 -27 -50 -11 -27 -23 -50 -27 -50 -4 0 -8
-11 -8 -25 0 -14 -4 -25 -10 -25 -5 0 -12 -16 -16 -35 -3 -19 -10 -35 -15 -35
-5 0 -9 -6 -9 -14 0 -7 -11 -34 -25 -60 -14 -26 -25 -54 -25 -62 0 -7 -4 -14
-10 -14 -5 0 -10 -6 -10 -14 0 -8 -6 -27 -14 -43 -32 -62 -66 -141 -66 -151 0
-7 -4 -12 -10 -12 -5 0 -10 -7 -10 -15 0 -8 -4 -23 -10 -33 -19 -32 -90 -193
-90 -203 0 -5 -4 -9 -10 -9 -5 0 -10 -11 -10 -25 0 -14 -4 -25 -10 -25 -5 0
-12 -16 -16 -35 -3 -19 -9 -35 -13 -35 -3 0 -12 -15 -20 -32 -7 -18 -20 -46
-27 -62 -8 -16 -14 -35 -14 -43 0 -7 -3 -13 -7 -13 -5 0 -17 -21 -27 -48 -10
-26 -34 -81 -54 -122 -19 -41 -42 -93 -52 -115 -10 -22 -32 -71 -49 -108 -17
-38 -31 -73 -31 -78 0 -5 -4 -9 -10 -9 -5 0 -10 -11 -10 -24 0 -13 -4 -26 -8
-28 -4 -2 -21 -34 -37 -73 -16 -38 -35 -79 -42 -90 -7 -11 -13 -27 -13 -37 0
-10 -4 -18 -10 -18 -5 0 -10 -6 -10 -12 0 -7 -12 -38 -26 -68 -27 -56 -58
-123 -89 -195 -10 -22 -33 -72 -51 -112 -19 -39 -34 -76 -34 -82 0 -6 -4 -11
-10 -11 -5 0 -10 -11 -10 -25 0 -14 -4 -25 -10 -25 -5 0 -10 -5 -10 -12 0 -6
-11 -34 -24 -62 -13 -28 -41 -87 -61 -131 -20 -44 -43 -93 -51 -109 -8 -16
-14 -35 -14 -43 0 -7 -4 -13 -10 -13 -5 0 -10 -7 -10 -16 0 -9 -6 -28 -14 -42
-8 -15 -23 -47 -34 -72 -11 -25 -39 -85 -62 -135 -23 -49 -45 -99 -50 -110
-19 -45 -113 -250 -146 -319 -8 -16 -14 -35 -14 -43 0 -7 -4 -13 -10 -13 -5 0
-10 -6 -10 -14 0 -8 -6 -27 -14 -43 -27 -52 -66 -143 -66 -153 0 -6 -4 -10
-10 -10 -5 0 -10 -6 -10 -13 0 -7 -8 -31 -19 -53 -10 -21 -29 -61 -41 -89 -12
-27 -37 -81 -55 -120 -17 -38 -40 -88 -50 -110 -10 -22 -26 -58 -36 -79 -11
-22 -19 -46 -19 -53 0 -7 -3 -13 -7 -13 -5 0 -17 -21 -27 -48 -11 -26 -30 -70
-43 -99 -12 -28 -23 -57 -23 -62 0 -6 -4 -11 -10 -11 -5 0 -10 -5 -10 -12 0
-6 -9 -30 -19 -52 -11 -23 -29 -63 -41 -91 -12 -27 -31 -68 -41 -89 -11 -22
-19 -45 -19 -52 0 -7 -4 -14 -8 -16 -4 -1 -23 -39 -42 -83 -18 -44 -37 -84
-42 -90 -4 -5 -8 -17 -8 -27 0 -10 -3 -18 -7 -18 -5 0 -17 -21 -27 -48 -10
-26 -33 -78 -51 -117 -18 -38 -44 -96 -59 -128 -14 -32 -26 -62 -26 -67 0 -6
-4 -10 -10 -10 -5 0 -10 -7 -10 -15 0 -18 -32 -89 -42 -93 -5 -2 -8 -10 -8
-18 0 -8 -4 -22 -9 -32 -6 -9 -21 -42 -34 -72 -14 -30 -41 -89 -60 -130 -19
-41 -42 -93 -52 -115 -10 -22 -28 -62 -40 -90 -61 -133 -75 -166 -75 -175 0
-6 -4 -10 -10 -10 -5 0 -10 -6 -10 -14 0 -8 -6 -27 -14 -43 -8 -15 -26 -53
-40 -83 -13 -30 -38 -84 -54 -120 -16 -36 -39 -87 -52 -115 -12 -27 -31 -68
-41 -89 -11 -22 -19 -46 -19 -53 0 -7 -4 -13 -10 -13 -5 0 -10 -5 -10 -12 0
-6 -11 -34 -24 -62 -27 -59 -46 -105 -46 -111 0 -3 521 -5 1159 -5 l1159 0 27
57 c15 32 38 79 51 104 13 26 24 54 24 63 0 9 5 16 10 16 6 0 10 4 10 10 0 5
20 51 44 102 79 168 106 229 106 239 0 5 5 9 10 9 6 0 10 7 10 14 0 8 11 36
25 62 14 26 25 53 25 60 0 8 4 14 9 14 5 0 12 16 15 35 4 19 10 35 14 35 4 0
13 15 21 33 8 17 25 54 38 81 12 28 23 56 23 63 0 7 5 13 10 13 6 0 10 6 10
13 0 6 14 39 30 72 16 33 30 66 30 73 0 6 5 12 10 12 6 0 10 7 10 14 0 8 11
36 25 62 14 26 25 53 25 60 0 8 5 14 10 14 6 0 10 6 10 14 0 7 11 34 25 60 14
26 25 54 25 62 0 7 5 14 10 14 6 0 10 8 10 18 0 10 7 27 15 38 8 10 15 27 15
37 0 9 4 17 8 17 4 0 16 23 27 50 11 28 23 50 27 50 4 0 8 11 8 25 0 14 5 25
10 25 6 0 10 5 10 10 0 6 17 47 39 93 72 153 91 198 91 207 0 6 5 10 10 10 6
0 10 6 10 12 0 7 15 44 34 83 69 141 116 245 116 255 0 5 5 10 10 10 6 0 10
11 10 25 0 14 5 25 10 25 6 0 10 5 10 10 0 9 36 89 121 266 16 33 29 66 29 72
0 7 5 12 10 12 6 0 10 5 10 11 0 6 13 39 29 73 63 133 101 218 101 227 0 5 5
9 10 9 6 0 10 7 10 15 0 8 4 23 10 33 5 9 32 67 61 127 28 61 62 132 75 158
13 27 24 55 24 63 0 8 5 14 10 14 6 0 10 5 10 10 0 9 45 109 103 230 l22 45
105 2 c58 1 195 7 305 13 240 13 638 29 980 40 390 13 772 28 865 36 47 3 204
10 350 15 684 23 838 29 1015 38 105 6 229 11 278 11 l87 0 0 -2000 0 -2000
1203 2 1202 3 3 8698 2 8697 -43 0 c-24 0 -47 -3 -51 -7z m-2316 -8073 c0
-2975 0 -3040 -19 -3049 -10 -6 -84 -13 -162 -16 -79 -3 -193 -10 -254 -15
-60 -5 -225 -16 -365 -25 -140 -8 -289 -17 -330 -20 -41 -3 -147 -10 -235 -15
-88 -6 -266 -17 -395 -26 -129 -8 -302 -19 -385 -23 -430 -24 -559 -32 -648
-41 -132 -13 -147 -13 -147 5 0 8 5 15 10 15 6 0 10 9 10 20 0 11 5 20 10 20
6 0 10 5 10 12 0 10 34 89 66 151 8 16 14 35 14 43 0 8 4 14 8 14 4 0 16 23
27 50 11 28 23 50 27 50 4 0 8 6 8 14 0 8 7 27 15 43 8 15 20 43 27 61 7 17
16 32 20 32 5 0 8 8 8 18 0 10 7 27 15 38 8 10 15 27 15 37 0 9 5 17 10 17 6
0 10 6 10 13 0 6 12 35 25 62 14 28 25 56 25 63 0 6 5 12 10 12 6 0 10 4 10 9
0 10 52 130 70 163 6 10 10 25 10 33 0 8 4 15 8 15 4 0 16 23 27 50 11 28 23
50 27 50 4 0 8 6 8 13 0 6 11 35 25 62 13 28 25 56 25 63 0 6 5 12 10 12 6 0
10 8 10 18 0 10 7 27 15 38 8 10 15 27 15 37 0 9 4 17 8 17 4 0 16 23 27 50
11 28 23 50 27 50 4 0 8 7 8 16 0 9 22 62 49 118 84 175 101 213 101 224 0 7
5 12 10 12 6 0 10 9 10 20 0 11 5 20 10 20 6 0 10 7 10 16 0 9 7 28 15 42 25
47 65 139 65 150 0 7 4 12 8 12 4 0 16 23 27 50 11 28 23 50 27 50 4 0 8 11 8
25 0 14 5 25 10 25 6 0 10 6 10 13 0 6 18 48 40 92 22 44 40 86 40 93 0 6 5
12 10 12 6 0 10 7 10 14 0 8 11 36 25 62 14 26 25 53 25 60 0 8 5 14 10 14 6
0 10 5 10 12 0 11 24 65 75 173 29 61 101 216 144 308 17 38 31 73 31 78 0 5
5 9 10 9 6 0 10 6 10 14 0 7 11 34 25 60 14 26 25 54 25 62 0 7 5 14 10 14 6
0 10 5 10 11 0 7 15 44 34 83 18 39 41 89 51 111 10 22 33 71 51 108 19 38 34
75 34 83 0 8 4 14 9 14 5 0 13 10 17 23 4 12 17 45 30 74 13 28 24 57 24 62 0
6 5 11 10 11 6 0 10 6 10 14 0 7 11 34 25 60 14 26 25 54 25 62 0 7 5 14 10
14 6 0 10 5 10 11 0 7 18 49 40 95 22 46 40 88 40 94 0 5 5 10 10 10 6 0 10
11 10 25 0 14 4 25 8 25 4 0 16 23 27 50 11 28 23 50 27 50 4 0 8 7 8 16 0 9
6 28 14 42 37 71 86 179 86 190 0 6 5 12 10 12 6 0 10 4 10 10 0 9 19 54 91
207 22 46 39 87 39 93 0 5 5 10 10 10 6 0 10 11 10 25 0 14 4 25 8 25 4 0 16
23 27 50 11 28 23 50 27 50 4 0 8 6 8 12 0 7 11 36 25 65 14 29 36 77 50 106
14 29 25 58 25 65 0 6 5 12 10 12 6 0 10 4 10 10 0 5 18 47 40 94 22 46 40 91
40 100 0 9 3 16 8 16 8 0 42 73 42 90 0 6 5 10 10 10 6 0 10 6 10 13 0 8 14
42 31 78 17 35 44 93 61 129 17 36 41 87 54 113 13 27 24 55 24 63 0 8 3 14 8
14 4 0 16 21 26 48 18 45 34 72 42 72 2 0 4 -1368 4 -3040z"/>
<path d="M18500 14670 l0 -8700 1200 0 1200 0 0 3551 0 3552 103 -6 c56 -3
192 -13 302 -22 110 -9 268 -20 350 -25 261 -17 262 -17 291 -59 13 -19 24
-41 24 -48 0 -7 5 -13 10 -13 6 0 10 -7 10 -15 0 -8 3 -15 8 -15 4 0 16 -17
27 -37 23 -44 117 -196 125 -203 3 -3 14 -21 23 -40 19 -38 39 -72 47 -80 9
-8 60 -89 60 -94 0 -4 106 -180 130 -216 6 -8 13 -23 16 -32 4 -10 10 -18 15
-18 5 0 9 -7 9 -15 0 -8 3 -15 8 -15 4 0 16 -17 27 -37 35 -66 118 -198 126
-201 5 -2 9 -11 9 -19 0 -9 11 -31 25 -49 14 -18 25 -37 25 -43 0 -6 3 -11 8
-11 4 0 12 -9 17 -19 6 -11 19 -36 30 -58 10 -21 25 -44 32 -51 7 -7 13 -20
13 -28 0 -8 5 -14 10 -14 6 0 10 -6 10 -14 0 -8 4 -16 8 -18 5 -2 28 -37 52
-78 24 -41 47 -76 52 -78 4 -2 8 -10 8 -18 0 -8 4 -14 9 -14 5 0 12 -11 15
-25 4 -14 11 -25 16 -25 6 0 10 -9 10 -20 0 -11 3 -20 8 -20 4 0 16 -17 27
-37 11 -21 23 -40 26 -43 3 -3 27 -42 54 -88 26 -45 52 -88 59 -95 6 -7 17
-23 23 -37 7 -14 24 -43 38 -65 14 -22 28 -48 31 -57 4 -10 10 -18 15 -18 5 0
9 -5 9 -11 0 -6 11 -25 25 -43 14 -18 25 -40 25 -49 0 -8 4 -17 9 -19 8 -3 91
-135 126 -200 11 -21 23 -38 27 -38 5 0 8 -7 8 -15 0 -8 4 -15 9 -15 5 0 11
-8 15 -17 3 -10 16 -34 28 -54 13 -20 57 -92 97 -160 41 -68 77 -126 80 -129
5 -4 24 -36 55 -95 6 -11 14 -22 17 -25 3 -3 14 -21 25 -40 10 -19 21 -37 24
-40 9 -9 55 -84 75 -122 11 -21 23 -38 27 -38 5 0 8 -5 8 -10 0 -10 36 -73 78
-136 7 -10 15 -27 18 -36 4 -10 10 -18 15 -18 5 0 9 -5 9 -11 0 -6 11 -25 25
-43 14 -18 25 -36 25 -40 0 -3 27 -49 60 -102 33 -52 60 -99 60 -105 0 -5 4
-9 9 -9 5 0 11 -8 15 -17 6 -19 27 -55 37 -63 6 -5 37 -58 75 -130 11 -19 21
-37 24 -40 10 -10 76 -116 95 -152 11 -21 22 -38 26 -38 4 0 9 -8 13 -18 5
-17 26 -52 36 -62 4 -4 24 -39 54 -95 6 -11 14 -22 17 -25 3 -3 25 -39 49 -80
24 -41 47 -76 52 -78 4 -2 8 -10 8 -18 0 -8 4 -14 8 -14 4 0 13 -12 19 -27 14
-33 43 -82 61 -101 6 -7 12 -20 12 -28 0 -8 5 -14 10 -14 6 0 10 -5 10 -11 0
-6 11 -25 25 -43 14 -18 25 -36 25 -40 0 -6 49 -86 60 -96 3 -3 12 -19 21 -35
25 -49 44 -80 50 -85 4 -3 9 -15 13 -27 4 -13 12 -23 17 -23 5 0 9 -7 9 -15 0
-8 3 -15 8 -15 4 0 16 -17 27 -37 11 -21 46 -80 78 -131 32 -51 69 -114 84
-140 14 -26 29 -49 32 -52 8 -7 27 -39 48 -80 9 -19 20 -37 23 -40 4 -3 15
-21 26 -40 10 -19 22 -37 25 -40 3 -3 25 -39 49 -80 24 -41 47 -77 52 -78 4
-2 8 -8 8 -13 0 -6 16 -35 35 -65 19 -30 35 -59 35 -64 0 -6 4 -10 9 -10 5 0
13 -10 17 -22 4 -13 9 -25 13 -28 7 -6 17 -22 66 -107 19 -34 41 -68 48 -75 6
-8 19 -27 28 -43 27 -52 44 -80 50 -85 4 -3 9 -15 13 -27 4 -13 12 -23 17 -23
5 0 9 -7 9 -15 0 -8 4 -15 8 -15 5 0 14 -12 21 -27 7 -16 42 -74 77 -130 35
-57 64 -105 64 -108 0 -6 51 -86 60 -95 10 -10 31 -45 36 -62 4 -10 10 -18 15
-18 5 0 9 -4 9 -10 0 -5 12 -30 27 -55 l28 -45 1387 0 c914 0 1389 3 1393 10
3 6 2 10 -4 10 -5 0 -13 10 -17 23 -4 12 -9 24 -13 27 -10 8 -31 44 -37 63 -4
9 -10 17 -15 17 -5 0 -9 9 -9 19 0 11 -4 21 -8 23 -5 1 -26 32 -47 68 -21 36
-62 103 -91 150 -28 47 -57 96 -64 110 -7 14 -16 27 -19 30 -3 3 -15 22 -25
43 -11 20 -23 37 -28 37 -4 0 -8 9 -8 20 0 11 -4 20 -9 20 -5 0 -12 11 -15 25
-4 14 -11 25 -16 25 -6 0 -10 7 -10 15 0 8 -4 15 -10 15 -5 0 -10 6 -10 14 0
8 -6 21 -13 28 -7 7 -22 30 -32 51 -11 22 -24 47 -30 58 -5 10 -13 19 -17 19
-5 0 -8 4 -8 10 0 5 -15 33 -33 62 -19 29 -45 73 -59 98 -37 65 -181 304 -188
310 -4 4 -23 37 -54 95 -6 11 -14 22 -17 25 -4 3 -9 15 -13 28 -4 12 -12 22
-17 22 -5 0 -9 5 -9 10 0 6 -16 36 -35 66 -19 30 -35 58 -35 63 0 5 -4 11 -9
13 -7 3 -26 35 -85 143 -6 11 -13 22 -16 25 -7 6 -151 245 -188 310 -14 25
-28 47 -31 50 -3 3 -13 19 -22 35 -23 43 -43 79 -49 85 -8 8 -28 42 -47 80 -9
19 -23 41 -30 48 -7 7 -13 20 -13 28 0 8 -4 14 -10 14 -5 0 -10 6 -10 14 0 8
-4 16 -8 18 -8 3 -32 41 -78 128 -11 19 -22 37 -25 40 -4 3 -15 21 -25 40 -27
50 -137 234 -144 240 -3 3 -14 21 -24 40 -11 19 -22 37 -26 40 -3 3 -15 22
-26 43 -36 73 -39 77 -46 77 -5 0 -8 6 -8 14 0 8 -6 21 -12 28 -7 7 -20 27
-28 43 -8 17 -21 36 -27 43 -7 7 -13 20 -13 28 0 8 -4 14 -10 14 -5 0 -10 4
-10 10 0 5 -20 42 -45 80 -25 39 -53 85 -63 103 -48 87 -167 282 -174 285 -4
2 -8 8 -8 13 0 5 -12 28 -26 50 -14 23 -37 62 -51 87 -14 26 -29 49 -32 52 -5
4 -22 34 -55 95 -6 11 -14 22 -17 25 -4 3 -9 15 -13 28 -4 12 -12 22 -17 22
-5 0 -9 4 -9 9 0 6 -27 53 -60 105 -33 53 -60 98 -60 101 0 3 -23 42 -51 87
-28 45 -63 102 -77 127 -14 25 -28 48 -31 51 -5 4 -22 34 -55 95 -6 11 -13 22
-16 25 -10 10 -31 45 -36 63 -4 9 -10 17 -15 17 -5 0 -9 9 -9 20 0 11 -3 20
-8 20 -4 0 -16 17 -27 38 -11 20 -22 39 -25 42 -8 8 -28 42 -47 80 -9 19 -23
41 -30 48 -7 7 -13 20 -13 28 0 8 -4 14 -8 14 -5 0 -14 10 -20 23 -13 24 -27
48 -83 142 -20 33 -69 116 -109 185 -41 69 -76 127 -79 130 -10 9 -31 45 -37
63 -4 9 -10 17 -15 17 -5 0 -9 9 -9 20 0 11 -4 20 -9 20 -5 0 -11 8 -15 18 -5
17 -26 52 -36 62 -8 8 -28 43 -47 80 -9 19 -20 37 -24 40 -4 3 -17 23 -28 45
-12 22 -40 69 -63 105 -22 36 -51 84 -64 108 -27 48 -56 95 -64 102 -3 3 -14
23 -25 45 -11 22 -22 42 -25 45 -3 3 -14 21 -24 40 -11 19 -22 37 -25 40 -5 4
-23 35 -55 95 -6 11 -13 22 -16 25 -7 7 -29 43 -37 60 -4 8 -9 17 -12 20 -5 4
-23 35 -55 95 -6 11 -13 22 -16 25 -7 6 -133 217 -168 280 -14 25 -34 58 -44
73 -23 33 -11 57 28 57 13 0 24 3 24 8 0 4 21 15 48 25 26 10 63 28 82 38 19
11 43 23 53 26 9 3 17 9 17 14 0 5 6 9 12 9 14 0 120 51 128 61 3 4 30 19 60
35 30 16 57 32 60 35 3 3 21 14 40 25 49 27 174 115 178 126 2 4 8 8 14 8 5 0
16 6 23 13 33 29 45 37 55 37 5 0 10 4 10 9 0 5 8 12 19 16 10 3 32 18 47 33
16 15 49 43 74 62 118 93 419 393 510 510 19 25 39 50 45 56 5 6 21 27 35 47
14 20 28 37 33 37 4 0 7 5 7 10 0 6 11 23 25 38 14 15 25 30 25 35 0 4 11 20
25 35 14 15 25 32 25 39 0 6 3 13 8 15 12 5 62 76 62 87 0 6 4 11 10 11 5 0
12 11 16 25 3 14 10 25 15 25 5 0 9 6 9 14 0 8 3 16 8 18 4 2 16 21 27 43 11
22 22 42 25 45 8 8 28 42 47 80 9 19 27 52 40 72 13 21 23 44 23 53 0 8 4 15
8 15 4 0 16 23 27 50 11 28 23 50 27 50 4 0 8 7 8 16 0 9 6 28 14 42 7 15 18
38 24 52 5 14 22 51 36 83 14 32 26 62 26 67 0 6 4 18 9 28 5 9 17 37 26 62
10 25 21 54 25 65 5 11 16 43 25 70 9 28 21 58 26 67 5 10 9 29 9 42 0 14 4
35 9 48 10 24 34 105 50 168 5 19 17 73 26 120 9 47 20 101 25 120 5 19 12 51
15 70 27 171 37 246 45 315 5 44 13 123 19 175 13 118 13 704 0 825 -5 50 -14
131 -19 180 -8 79 -24 202 -45 345 -4 25 -10 54 -15 65 -4 11 -17 70 -29 130
-23 115 -29 141 -56 240 -9 33 -19 74 -22 90 -2 17 -8 39 -12 50 -5 11 -16 45
-25 75 -10 30 -21 64 -26 75 -4 11 -16 47 -26 80 -10 33 -22 64 -26 70 -4 5
-8 19 -8 31 0 13 -4 25 -9 29 -5 3 -13 20 -17 37 -3 18 -10 39 -14 48 -8 16
-16 35 -45 110 -54 138 -232 512 -247 518 -5 2 -8 12 -8 22 0 10 -3 20 -7 22
-5 2 -17 21 -28 43 -11 22 -36 67 -56 100 -19 33 -53 89 -74 125 -21 36 -42
67 -47 68 -4 2 -8 10 -8 18 0 8 -4 14 -10 14 -5 0 -10 5 -10 12 0 6 -6 19 -14
27 -8 9 -21 27 -28 41 -17 31 -110 171 -123 186 -5 6 -21 25 -35 43 -14 18
-30 38 -35 44 -6 7 -28 37 -50 67 -22 30 -45 61 -52 68 -7 7 -29 34 -50 60
-21 26 -42 52 -48 58 -5 7 -26 31 -45 55 -92 116 -377 400 -541 540 -30 26
-74 65 -99 88 -25 22 -48 41 -52 41 -4 0 -20 12 -36 28 -15 15 -45 38 -65 52
-20 14 -37 28 -37 33 0 4 -5 7 -10 7 -6 0 -23 11 -38 25 -15 14 -31 25 -36 25
-5 0 -16 8 -25 18 -9 10 -41 33 -71 52 -30 19 -56 38 -58 42 -2 5 -10 8 -18 8
-8 0 -14 3 -14 8 0 4 -27 23 -60 42 -33 19 -60 38 -60 43 0 4 -7 7 -15 7 -8 0
-15 5 -15 10 0 6 -9 10 -20 10 -11 0 -20 4 -20 9 0 5 -10 13 -22 17 -13 4 -25
9 -28 13 -7 8 -38 27 -80 48 -19 9 -37 19 -40 22 -10 11 -72 41 -85 41 -7 0
-15 4 -17 9 -3 10 -264 138 -344 170 -28 11 -71 29 -95 39 -56 26 -156 62
-189 69 -14 3 -29 9 -35 13 -10 8 -128 44 -240 75 -33 9 -68 20 -77 26 -10 5
-31 9 -46 9 -16 0 -32 3 -36 7 -4 5 -38 14 -74 21 -37 7 -87 17 -112 22 -171
34 -272 52 -385 70 -33 5 -96 17 -140 26 -44 8 -107 18 -140 21 -33 3 -64 9
-70 14 -5 5 -25 9 -45 9 -19 0 -52 5 -72 10 -20 6 -68 15 -105 21 -37 5 -90
13 -118 18 -27 4 -86 13 -130 20 -44 7 -88 17 -97 22 -10 5 -36 9 -59 9 -23 0
-58 4 -78 9 -20 6 -79 17 -131 26 -52 8 -117 20 -145 25 -43 8 -133 23 -265
45 -19 3 -55 10 -80 14 -25 5 -85 14 -135 21 -49 7 -99 16 -110 21 -11 4 -40
10 -65 12 -25 3 -85 12 -135 22 -49 10 -115 21 -145 25 -30 4 -95 15 -145 25
-96 18 -160 29 -265 45 -180 28 -219 36 -226 43 -4 4 -23 7 -42 7 -19 0 -51 4
-71 9 -20 5 -72 15 -116 22 -111 16 -175 27 -210 34 -16 3 -70 13 -120 21 -49
8 -112 19 -140 24 -27 5 -63 11 -80 14 -16 2 -68 12 -115 21 -47 9 -112 19
-145 22 -33 3 -64 9 -69 14 -6 5 -25 9 -43 9 l-33 0 0 -8700z m2509 5880 c156
-26 240 -40 276 -45 143 -18 191 -25 285 -40 58 -9 134 -20 170 -25 58 -8 146
-21 345 -50 33 -5 105 -16 160 -24 55 -9 134 -21 175 -27 165 -23 199 -28 295
-43 55 -9 127 -20 160 -25 64 -9 237 -48 270 -60 54 -20 124 -41 139 -41 9 0
16 -4 16 -10 0 -5 9 -10 20 -10 11 0 28 -4 38 -9 40 -22 86 -41 99 -41 7 0 13
-4 13 -10 0 -5 5 -10 11 -10 36 0 381 -197 436 -249 12 -12 25 -21 28 -21 4 0
12 -6 20 -12 7 -7 25 -22 40 -32 30 -23 55 -43 107 -92 20 -19 39 -34 42 -34
6 0 236 -231 236 -237 0 -4 16 -24 45 -56 12 -12 41 -49 65 -82 25 -33 53 -69
63 -79 9 -11 17 -23 17 -27 0 -4 6 -14 13 -21 20 -19 87 -127 87 -138 0 -6 4
-10 9 -10 5 0 12 -11 15 -25 4 -14 11 -25 16 -25 6 0 10 -6 10 -14 0 -8 3 -16
8 -18 9 -4 112 -210 112 -225 0 -6 3 -13 8 -15 11 -5 42 -76 42 -98 0 -11 5
-20 10 -20 6 0 10 -8 10 -17 0 -10 7 -31 15 -47 8 -15 15 -36 15 -45 0 -10 3
-21 7 -24 10 -11 43 -109 43 -129 0 -10 4 -26 9 -36 17 -33 61 -223 61 -265 0
-15 4 -35 9 -45 12 -21 31 -206 38 -372 6 -128 -18 -454 -37 -495 -5 -11 -11
-40 -13 -65 -6 -50 -26 -136 -67 -275 -14 -48 -36 -104 -43 -111 -4 -4 -7 -13
-7 -20 0 -27 -135 -309 -160 -334 -10 -10 -31 -45 -36 -62 -4 -10 -10 -18 -15
-18 -5 0 -9 -5 -9 -10 0 -9 -66 -104 -95 -136 -5 -6 -23 -27 -38 -47 -87 -111
-266 -275 -387 -355 -30 -21 -56 -40 -58 -44 -2 -5 -10 -8 -18 -8 -8 0 -14 -4
-14 -8 0 -4 -26 -21 -57 -37 -32 -17 -60 -33 -63 -36 -5 -5 -114 -58 -167 -80
-13 -5 -33 -13 -45 -18 -13 -5 -48 -17 -78 -26 -30 -9 -64 -20 -75 -25 -38
-17 -233 -60 -272 -60 -21 0 -44 -5 -49 -10 -7 -7 -99 -9 -270 -6 -254 4 -313
8 -639 41 -88 9 -203 20 -255 25 -52 5 -117 12 -145 15 -27 3 -126 12 -220 20
-93 9 -200 20 -238 25 -37 6 -91 10 -119 10 -28 0 -79 4 -112 10 -34 5 -119
15 -191 21 -71 6 -151 14 -177 16 l-48 5 0 2544 0 2544 27 0 c15 0 52 -4 82
-10z"/>
</g>
</svg>
