<svg width="772" height="358" viewBox="0 0 772 358" fill="none" xmlns="http://www.w3.org/2000/svg">
<path fill-rule="evenodd" clip-rule="evenodd" d="M319.866 163.994L231.262 167.149L315.393 171.824L319.866 163.994ZM309.268 182.613L220.454 185.772L304.897 190.464L309.268 182.613ZM298.669 201.388L209.966 204.502L294.307 209.19L298.669 201.388ZM288.289 220.068L199.475 223.232L283.716 227.911L288.289 220.068ZM396.858 70.0143L283.77 74.0387L397.18 80.3411L396.858 70.0143ZM396.141 51.5356L294.55 55.0987L396.463 60.9438L396.141 51.5356ZM395.417 33.7118L304.901 36.69L395.853 41.7401L395.417 33.7118ZM394.807 15.4143L315.467 18.0671L395.12 22.7712L394.807 15.4143ZM394.292 0.622284H325.287L394.395 4.28837L394.292 0.622284ZM277.587 238.741L188.987 241.95H275.779L277.587 238.741Z" fill="black"/>
<path fill-rule="evenodd" clip-rule="evenodd" d="M577.852 1.21957H450.165L446.544 7.62904L510.441 11.0191C511.191 11.0191 511.191 12.0819 510.12 12.0819L442.82 14.331L436.328 25.6917L499.789 29.4402C500.641 29.5473 500.431 30.7171 499.686 30.7171L432.275 32.9333L426.002 43.8121L489.359 47.3299C490.743 47.437 490.743 48.6109 489.359 48.6109L422.059 50.9712L415.671 62.3484L478.818 65.9692C480.202 66.0763 480.099 67.3533 478.818 67.3533L411.518 69.7507L405.018 80.9878L468.269 84.5015C469.224 84.6086 469.34 85.7826 468.059 85.7826L274.139 92.2785L458.156 102.502C459.322 102.502 459.219 103.994 457.938 103.994L263.705 110.918L447.722 121.138C448.575 121.138 448.785 122.522 447.504 122.522L252.95 129.549L436.967 139.773C437.717 139.88 438.454 141.264 436.864 141.371L242.619 148.283L426.632 158.503C427.163 158.61 427.695 159.994 426.422 159.994L328.661 163.479L328.982 172.302L416.091 177.142C416.725 177.249 417.046 178.526 415.872 178.526L329.303 181.603L329.728 191.473L405.34 195.675C406.081 195.782 406.402 197.273 405.121 197.273L330.152 199.905L330.477 210.734L394.906 214.314C395.647 214.417 395.861 215.801 394.584 215.801L330.799 218.079L331.223 229.992L384.468 232.949C385.217 233.056 385.217 234.337 384.151 234.337L331.437 236.244L331.651 241.365H503.529C549.104 241.365 589.991 208.139 597.661 181.727C605.335 155.319 605.335 131.464 568.699 119.539C589.151 114.852 624.712 91.7883 631.743 59.9016C638.12 30.9313 627.476 1.32667 577.852 1.21957ZM491.398 186.172H438.582L468.396 133.351H507.586C548.053 133.351 528.454 186.172 491.398 186.172ZM559.76 72.8565C558.055 79.2454 545.269 95.4339 529.093 95.4339H489.903L515.03 51.136H535.053C560.605 51.9887 561.457 66.4718 559.76 72.8565ZM771.326 317.903C771.326 297.435 754.31 280.291 733.842 280.291C712.842 280.291 695.698 297.707 695.698 319.102C695.676 324.135 696.652 329.122 698.568 333.776C700.485 338.429 703.304 342.657 706.862 346.216C710.421 349.774 714.65 352.593 719.304 354.509C723.958 356.424 728.945 357.4 733.977 357.378C749.519 357.378 764.274 346.746 768.661 332.259H749.256C745.4 338.372 740.358 341.16 733.438 341.16C724.668 341.16 716.833 335.179 714.304 326.673H770.387C771.058 322.558 771.326 320.56 771.326 317.903ZM713.777 312.779C716.302 302.811 724.277 296.43 734.109 296.43C743.95 296.43 751.657 302.679 754.046 312.779H713.777ZM519.371 283.838V289.806C513.794 283.825 505.712 280.423 497.07 280.423C477.932 280.423 461.616 296.768 461.616 318.035C461.616 338.1 476.05 356.097 497.449 356.097C506.886 356.097 514.062 353.918 520.838 346.211V355.648H537.059V283.838H519.371ZM499.562 340.876C493.651 340.876 487.983 338.528 483.803 334.349C479.623 330.169 477.275 324.5 477.275 318.589C477.275 312.678 479.623 307.01 483.803 302.83C487.983 298.65 493.651 296.302 499.562 296.302C505.473 296.302 511.142 298.65 515.321 302.83C519.501 307.01 521.849 312.678 521.849 318.589C521.849 324.5 519.501 330.169 515.321 334.349C511.142 338.528 505.473 340.876 499.562 340.876ZM36.0289 280.287C28.7214 280.287 23.1399 282.812 17.0229 289.061V282.017H0.673828V355.648H18.3534V320.956C18.3534 311.523 19.1484 296.5 32.1733 296.5C44.3991 296.5 45.7296 310.588 45.7296 319.625V355.644H63.4051V316.169C63.4051 305.801 62.6101 300.887 59.8173 295.038C55.6981 286.268 45.9974 280.287 36.0289 280.287ZM145.863 317.903C145.863 297.435 128.851 280.291 108.383 280.291C87.3829 280.291 70.2388 297.707 70.2388 319.102C70.2181 324.134 71.194 329.121 73.1102 333.774C75.0264 338.427 77.845 342.655 81.4033 346.213C84.9617 349.772 89.1894 352.59 93.8425 354.506C98.4957 356.423 103.482 357.398 108.514 357.378C124.064 357.378 138.815 346.746 143.202 332.259H123.801C119.945 338.372 114.895 341.16 107.983 341.16C99.2133 341.16 91.3703 335.179 88.8453 326.673H144.928C145.6 322.558 145.863 320.56 145.863 317.903ZM88.318 312.779C90.8431 302.811 98.8178 296.43 108.654 296.43C118.491 296.43 126.198 302.679 128.591 312.779H88.318ZM436.699 355.586H454.375V257.368H436.699V355.586ZM583.693 280.287C576.381 280.287 570.795 282.812 564.683 289.061V282.017H548.333V355.648H566.017V320.956C566.017 311.523 566.812 296.5 579.837 296.5C592.059 296.5 593.393 310.588 593.393 319.625V355.644H611.069V316.169C611.069 305.801 610.274 300.887 607.481 295.038C603.362 286.268 593.661 280.287 583.693 280.287ZM655.194 296.504C663.296 296.504 667.947 299.165 672.338 306.605H692.266C686.821 290.791 672.869 280.287 655.853 280.287C634.322 280.287 617.042 297.431 617.042 318.567C617.042 339.83 634.454 357.374 655.853 357.374C661.311 357.345 666.703 356.185 671.69 353.965C676.677 351.746 681.149 348.516 684.823 344.481C688.547 340.361 689.877 337.968 692.266 331.46H672.338C668.21 337.836 662.901 341.156 656.256 341.156C643.891 341.156 634.725 331.587 634.725 318.826C634.725 305.941 643.495 296.504 655.194 296.504ZM213.426 326.941L200.908 282.021H186.684L174.03 326.941L159.065 282.021H143.47L168.053 355.648H179.377L193.732 307.939L207.684 355.648H219.568L243.142 282.021H228.527L213.426 326.941ZM308.131 280.365C299.493 280.365 291.411 283.768 285.829 289.745V257.372H268.15V355.586H284.363V346.153C291.143 353.86 298.319 356.035 307.756 356.035C329.155 356.035 343.589 338.042 343.589 317.973C343.593 296.71 327.273 280.365 308.131 280.365ZM305.639 340.876C299.728 340.876 294.059 338.528 289.879 334.349C285.7 330.169 283.352 324.5 283.352 318.589C283.352 312.678 285.7 307.01 289.879 302.83C294.059 298.65 299.728 296.302 305.639 296.302C311.549 296.302 317.218 298.65 321.398 302.83C325.577 307.01 327.926 312.678 327.926 318.589C327.926 324.5 325.577 330.169 321.398 334.349C317.218 338.528 311.549 340.876 305.639 340.876ZM407.21 283.838V289.806C401.628 283.825 393.551 280.423 384.908 280.423C365.771 280.423 349.446 296.768 349.446 318.035C349.446 338.1 363.884 356.097 385.279 356.097C394.716 356.097 401.892 353.918 408.672 346.211V355.648H424.885V283.838H407.21ZM387.405 340.876C381.494 340.876 375.825 338.528 371.645 334.349C367.466 330.169 365.118 324.5 365.118 318.589C365.118 312.678 367.466 307.01 371.645 302.83C375.825 298.65 381.494 296.302 387.405 296.302C393.316 296.302 398.984 298.65 403.164 302.83C407.344 307.01 409.692 312.678 409.692 318.589C409.692 324.5 407.344 330.169 403.164 334.349C398.984 338.528 393.316 340.876 387.405 340.876Z" fill="black"/>
</svg>
