<?xml version="1.0" encoding="UTF-8"?>
<svg id="Calque_2" data-name="Calque 2" xmlns="http://www.w3.org/2000/svg" viewBox="0 0 856.69 512.84">
  <defs>
    <style>
      .cls-1 {
        fill: #1a5fab;
        stroke-width: 0px;
      }
    </style>
  </defs>
  <g id="Calque_2-2" data-name="Calque 2">
    <g>
      <path class="cls-1" d="M575.71,315.24c0-.91.02-1.83.02-2.74,1.39-.8,1.92-2.24,2.62-3.55,8.45-15.88,13.53-33.18,20.82-49.57,5.71-12.84,10.5-26.15,15.73-39.24,2.37-5.92,2.37-5.98,8.8-5.97,45.45.11,90.9.25,136.35.39,4.48,0,5.4-1.16,3.08-5.01-2.85-4.72-5.04-9.77-6.8-14.86-3.48-10.09-7.66-19.89-11.49-29.84-7.43-19.34-15.1-38.59-22.72-57.86-4.53-11.46-8.53-23.11-13.8-34.29-3.84-8.16-6.63-16.83-9.76-25.32-1.29-3.51-2.29-7.13-3.37-10.71-.52-1.71-.59-3.47.12-5.15,4.37-10.31,8.36-20.76,11.86-31.39.39.38.74.4,1.02-.13,1.66,3.3,3.31,6.6,4.97,9.9-.05.76.15,1.42.77,1.9-.03.52.14.91.7,1.02l-.27.02v.27c2.66,9.55,7.02,18.43,10.89,27.5,0,0,.07.19.07.18-.11.39-.08.71.37.86.17.32.34.64.51.95-.1,1.42.62,2.6,1.13,3.85,5.23,12.75,10.31,25.56,15.7,38.25,4.01,9.45,6.56,19.54,12.12,28.33.11.22.22.45.32.67,2.22,8.02,6.12,15.39,8.99,23.15,2.49,6.72,5.14,13.36,8.68,19.61.11.23.22.46.34.69,2.29,7.67,5.44,15,8.69,22.3h0c1.26,5.9,4.06,11.21,6.3,16.72,5.92,14.54,12.07,28.99,18.14,43.46,4.28,10.22,8.59,20.42,12.89,30.63,4.76,12.5,9.01,25.21,15.33,37.07,1.24,2.32,3.22,4.55,2.36,7.58-10.23-.02-20.47-.1-30.7,0-2.34.02-3.52-.37-4.09-2.99-.93-4.25-2.26-8.43-4.15-12.4-2.59-5.44-5.6-10.78-7.39-16.49-3.92-12.5-9.32-24.44-13.34-36.88-.74-2.3-2.09-2.95-4.45-2.9-43.06.93-86.12.35-129.18.36-3.79,0-5.95.81-6.2,4.91-.09,1.46-.65,2.95-1.27,4.29-8.53,18.6-14.6,38.19-22.58,57.02-1.91,4.51-4.17,5.45-8.56,5.33-9.85-.27-19.71,0-29.57.06v.02Z"/>
      <path class="cls-1" d="M50.57,277.17c-.97.81-1.14,1.94-1.21,3.1-4.74,10.28-9.33,20.62-12.68,31.45-.66,2.13-1.36,3.49-3.96,3.46-10.32-.13-20.64-.07-30.97-.09-.05-.69-.09-1.38-.14-2.07,1.04-.83,1.19-2.15,1.74-3.24,5.35-10.54,9.61-21.54,13.92-32.53,3.22-8.2,6.51-16.38,9.77-24.56,1.58-1.95,2.52-4.19,3-6.64,3.48-7.55,6.51-15.28,9.08-23.19l-.04-.15c3.41-7.63,7.06-15.15,10.19-22.89,13.09-32.43,25.97-64.95,39.95-97.01.4-.92.85-1.81.72-2.85l-.02.03c.35-.5.82-.95,1.02-1.5,8.45-22.65,18.27-44.74,27.23-67.18,3.68-9.21,8.72-17.9,10.5-27.82.1-.28.2-.56.29-.84.58-.23,1.25-.41.83-1.29.32-.29.65-.57.97-.86,1.63,1.6,2.55,3.58,3.25,5.74,2.27,6.97,5.2,13.68,8.29,20.32.1.29.2.59.3.88-.13.39,0,.63.4.73l-.14-.09c2.08,5.24.85,10.19-.92,15.27-2.43,6.95-5.36,13.7-7.89,20.62-5.14,14.06-11.1,27.82-16.44,41.81-2.89,7.56-6.54,14.85-8.41,22.79l.06.09c-1.54,1.71-2.18,3.82-2.59,6.02l.16-.2c-1.73,2.7-3.53,5.38-3.4,8.8-1.23.96-.86,2.66-1.75,3.78-1.18,1.59-1.93,3.39-2.65,5.24-4.12,10.58-8.29,21.14-12.5,31.68-3.6,9.02-7.27,18.02-10.94,27.02-1.11,2.72-.5,4.01,2.66,3.73,2.61-.23,5.23-.3,7.85-.31,41.3-.09,82.59-.15,123.89-.21,3.99,0,7.98-.26,11.95.35l.24-.24-.24-.24c-.03.77.35,1.2,1.08,1.36-.56,2.64.86,4.8,1.88,6.97,5.13,10.85,8.76,22.31,13.67,33.22,6.23,13.84,11.11,28.22,17.39,42.03.03,2.73,1.4,4.97,2.56,7.31,1.55,3.11,3.89,5.79,4.97,9.16-.47.31-.95.62-1.42.93-10.59,0-21.19,0-31.78-.04-1.42,0-3.36.52-3.65-1.6-.57-4.25-3.38-7.47-4.79-11.3-6.46-17.55-12.89-35.11-19.23-52.71-2.12-5.88-1.98-5.93-8.29-5.89-42.53.28-85.05.46-127.58-.06-2.71-.03-4.43.83-5.4,3.51-2.88,7.98-5.91,15.89-8.88,23.84-.78,2.08-2.07,4.01-1.91,6.37h.01Z"/>
      <path class="cls-1" d="M409,315.34c-.19-.34-.38-.67-.57-1.01.7-3.35.06-6.72.06-10.08.08-29.84.03-59.68.1-89.52.05-20.6-.53-41.2.3-61.79.15-3.65-.63-4.68-4.32-4.65-21.21.18-42.41.11-63.62.12-37.55.02-75.1,0-112.65.12-2.99,0-3.82-.79-3.69-3.77.22-4.85-.08-9.72-.17-14.58-.02-3.22-.04-6.45-.06-9.67.48-.48.95-.96,1.43-1.44,1.36.09,2.72.26,4.08.26,117.5-.01,235-.03,352.49-.07,11.61,0,23.21-.1,34.82-.15,2.98-.09,4.05,1.2,3.92,4.31-.28,6.86-.35,13.75-.11,20.61.13,3.55-1.11,4.4-4.47,4.39-57.3-.11-114.61-.11-171.91-.14-8.2,0-8.2-.05-6.91,8.31-.06.62-.17,1.24-.17,1.85.01,50.06.02,100.11.08,150.17,0,1.56-.47,3.25.6,4.71l-.23.13c-.18.53-.37,1.06-.55,1.6-9.49.1-18.97.19-28.46.29h0Z"/>
      <path class="cls-1" d="M541.8,509.99c-.59.31-1.18.62-1.76.93-4.06-1.14-7.85.71-11.76,1.12-23.05,2.44-42-4.79-55.38-24.18-7.61-11.03-10.05-23.71-8.96-36.93.65-7.98,2.78-15.7,6.65-22.79,4.71-8.63,11.05-16.23,19.58-20.86,15.34-8.32,31.7-10.68,48.79-5.1,10.34,3.37,18.89,8.8,24.42,18.41-.58,1.21-.96,2.59-1.79,3.6-4.44,5.39-6.42,5.35-11.08-.02-1.12-1.29-1.98-2.89-3.79-3.43-2.42-1.64-4.68-3.63-7.3-4.86-14.18-6.61-28.23-5.29-41.74,1.83-11.36,5.99-16.17,16.7-19.26,28.55-4.98,19.06,6.25,44.65,25.19,51.28,5.76,2.02,11.67,3.21,17.6,3,12.69-.43,24.35-3.61,31.68-15.39,1.34-2.15,3.31-2.62,5.51-1.66,1.59.69,3.12,1.6,4.51,2.63,3.38,2.51,3.39,4.16.61,7.34-3.73,4.25-8,7.71-12.85,10.67-3,1.83-6.61,2.88-8.86,5.87h-.01Z"/>
      <path class="cls-1" d="M587.82,511.25c-.92-.27-.54.72-.93.96-3.15-1.89-6.55-.39-9.82-.71-1.99-.2-3.15-.64-2.4-2.95.41-1.27.66-2.53,1.38-3.76,2.69-4.63,5.2-9.37,7.12-14.4,6.48-16.99,13.55-33.74,20.39-50.58,5.39-13.26,11.6-26.18,16.15-39.78,1.73-1.73,3.13-1.01,4.06.77.8,1.53,1.32,3.21,1.88,4.86,4.34,12.85,10.21,25.06,15.53,37.5,7.12,19.67,15.9,38.65,24,57.91.96,2.28,2.44,4.34,2.96,6.82.35,1.69.04,3.14-1.9,3.36-3.35.37-6.72.35-10.07-.09-1.61-.21-2.08-1.54-2.51-2.91-1.3-4.16-2.81-8.27-3.97-12.47-.56-2.04-1.5-2.94-3.6-2.92-16.46.16-32.91.32-49.37-.2-2.06-.06-3.53.7-4.14,2.95-1.26,4.69-2.68,9.32-4.04,13.98l.19.11.1-.19c-.84.28-1.32.78-1.01,1.73h0ZM621.5,481.99v-.12c6.23,0,12.47-.15,18.7.07,3.09.11,3.78-1.24,2.52-3.51-4.1-7.4-5.85-15.68-9.2-23.35-2.59-5.94-5.49-11.75-7.24-18.03-.84-3-1.6-6.03-2.56-8.99-.36-1.12-.86-2.52-2.45-2.44-1.5.07-1.48,1.46-1.82,2.49-1,3.07-1.38,6.33-2.85,9.26-3.43,6.81-6.08,13.95-8.55,21.14-2.43,7.04-6.12,13.6-7.73,20.94-.41,1.88-.2,2.69,2.12,2.62,6.35-.19,12.71-.06,19.06-.06v-.02Z"/>
      <path class="cls-1" d="M773.33,486.7l-.02-.09c1.01-2.48,2.03-4.95,3.03-7.43,3.38-8.39,6.79-16.77,10.1-25.19,1.08-2.74,2.64-5.34,2.78-8.41.19-.39.38-.78.57-1.17.88-1.13,1.42-2.4,1.5-3.84l.03-.05c1.56-1.82,2.41-3.99,3.01-6.27l.2-.07-.03-.21c1.16-1.45,2.03-3.03,2.19-4.92l.55-1.12c1.1-1.4,1.65-3.02,1.83-4.77,2.83-6.22,6.15-12.24,7.63-19.02.37-1.71.48-3.99,3.03-4.14,2.58-.15,3.33,1.93,3.98,3.8,9.78,27.81,22.88,54.24,33.79,81.57,2.94,7.36,6.68,14.4,8.89,22.07.78,2.71.1,4.06-2.8,4.01-3.11-.05-6.23.08-9.3-.61-.37-1.14-.89-2.17-1.92-2.86,0,0,.1.05.09.05-1.12-3.9-2.3-7.76-3.79-11.56-1.05-2.69-2.49-3.56-5.25-3.54-15.56.14-31.13.46-46.68-.39-2.34-.13-3.73.79-4.46,3.04-1.01,3.07-2.42,5.97-3.75,8.92-3.22,7.17-3.11,7.22-10.89,6.87-.25-.01-.5-.02-.75-.01-2.45.04-2.96-1.28-2.44-3.41.77-3.18,2.29-6.04,3.61-9,1.81-4.07,4.51-7.75,5.27-12.26h0ZM810.29,481.78v.04c6.48,0,12.97-.06,19.45.03,2.47.03,3.42-.77,2.12-3.06-3.73-6.55-6.3-13.53-8.8-20.64-3.65-10.38-7.72-20.63-11-31.15-.28-.9-.11-2.2-1.4-2.38-1.48-.2-1.76,1.13-2.16,2.15-.37.93-.62,1.9-.93,2.84-3.39,10.43-7.02,20.77-11.39,30.84-2.53,5.82-4.83,11.75-7.18,17.65-.98,2.45-.87,3.9,2.6,3.74,6.22-.29,12.46-.08,18.7-.08v.02Z"/>
      <path class="cls-1" d="M409.1,399.02c2.44.15,3,2.42,4.3,3.84,3.02,10.4,8.27,19.88,12.15,29.93l.08.13c2.86,7.17,5.71,14.35,8.6,21.51,2.84,7.03,5.32,14.23,9.27,20.76,3.11,9.71,7.28,18.98,11.66,28.17.1,1.95,1.02,3.64,1.69,5.41-.02.39-.05.78-.07,1.16-.1.2-.19.41-.29.62-.18.18-.36.37-.54.55-1.73.15-3.47.22-5.18.48-4.38.64-7.13-1.01-8.33-5.37-.56-2.03-1.4-4.01-2.33-5.9-4-8.13-3.33-8.46-11.83-7.27-.49.07-1,.03-1.49.03-13.33-.12-26.66-.23-39.99-.36-1.78-.02-3.48-.08-4.31,2.06-1.71,4.4-4.15,8.49-5.45,13.08-.88,3.12-9.16,5.37-11.6,3.26-.92-.8-.6-1.82-.51-2.79.29-3.04,1.74-5.7,2.82-8.48,2.84-7.29,6.65-14.21,8.34-21.94l.2-.17s-.06-.26-.07-.26c3.48-6.35,6.37-12.95,8.92-19.73,3.54-9.4,7.34-18.71,11.26-27.97,3.38-7.99,7.83-15.54,9.21-24.33.37-2.36,1.51-4.71,3.47-6.4l.02-.02ZM419.28,447.73c-.29-.94-.55-1.89-.87-2.81-1.95-5.63-5.32-10.69-6.48-16.63-.2-1.01.15-2.55-1.37-2.74-1.77-.22-1.66,1.47-2.11,2.56-3.52,8.65-5.33,17.93-9.74,26.26-4.15,7.85-6.17,16.58-10.06,24.55-.72,1.47-1.33,3.42,1.58,3.22,12.83-.87,25.66-.41,38.49-.26,3.37.04,3.48-1.5,2.43-3.96-1.85-4.35-3.69-8.7-5.53-13.05-1.56-5.91-4.37-11.37-6.33-17.13h-.01Z"/>
      <path class="cls-1" d="M157.5,509.59l-.05-.21c-1.79-4.78-3.69-9.52-5.34-14.34-.63-1.84-1.77-2.16-3.39-2.16-16.48.01-32.95,0-49.43.01-1.7,0-3.35.31-3.88,2.24-.89,3.24-2.43,6.3-2.63,9.72l.06-.03c-.94.8-.94,2.01-1.23,3.06-.56,2.06-1.8,3.3-3.92,3.41-3.47.18-6.96.68-10.39-.34.24-.92.48-1.83.72-2.75,2.97-7.11,5.92-14.22,8.9-21.33,1.67-3.98,4.06-7.69,4.59-12.11l-.04-.16c5.36-10.59,9.13-21.83,13.55-32.81,2.75-4.73,4.95-9.67,6.04-15.07,3.17-5.66,5.75-11.56,7.27-17.89,2.03-3.17,2.36-7.21,5.12-10.01,2.55.57,3.53,2.58,4.13,4.78,1.89,6.88,4.85,13.35,7.53,19.92,11.66,28.47,23.47,56.88,36.13,84.93-.05.58-.1,1.15-.14,1.72-4.59,1.24-9.18,2.6-13.59-.58h-.01ZM130.27,441.88c-.58-4.98-2.85-9.52-3.81-14.4-.24-1.2-.56-2.67-2.1-2.75-1.95-.11-1.81,1.71-2.22,2.93-2.83,8.26-5.64,16.53-8.92,24.63-3.55,8.77-6.08,17.96-10.95,26.21-1.28,2.16-.94,3.66,2.34,3.47,12.47-.73,24.95-.51,37.43-.24,4.17.09,4.59-.54,2.63-4.05-1.89-3.4-3.22-7.01-4.56-10.65-2.83-7.71-5.42-15.52-9.02-22.93-.28-.74-.56-1.47-.84-2.21h.02Z"/>
      <path class="cls-1" d="M681.83,496.76c-1.19-2.61-3.83-4.69-3-8.05,1.47-1.11,2.88-2.31,4.42-3.32,3.38-2.21,5.22-1.85,7.58,1.37.74,1,1.26,2.16,2.03,3.14,3.52,4.51,7.72,8.2,13.39,9.63,7.65,1.93,15.18,1.55,22.64-1.36,10.15-3.96,13.47-19.13,5.48-26.54-4.94-4.58-10.25-8.76-16.61-11.31-7.18-2.88-14.05-6.18-20.69-10.3-13.85-8.6-14.57-28.19-8.19-37.74,12.75-19.08,40.71-15.6,52.66-1.15,1.07,1.29,1.51,2.84,1.59,4.51.19,3.94-2.67,5.25-5.58,6.56-2.66,1.2-4.6.77-6.17-1.98-2.93-5.14-8.05-7.26-13.38-8.75-7.04-1.97-16.71,2.52-19.27,8.73-2.92,7.06.31,15.85,7.41,19.88,6.07,3.45,12.18,6.81,18.54,9.71,10.66,4.86,21,10.16,24.61,22.71,1.86,7.44,1.63,14.86-.15,22.27-1.49,1.68-2.03,3.9-3.53,5.64-10.92,12.62-34.88,16.39-49.7,7.79-5.32-3.08-9.9-7.01-14.09-11.45h.01Z"/>
      <path class="cls-1" d="M29.42,413.73c-7.21-.06-14.42-.12-21.63-.16-2.61-.01-5.22.06-7.79-.51.2-2.48.73-4.98.53-7.43-.3-3.76,1.28-4.6,4.76-4.57,22.6.16,45.2.19,67.79.15,7.95-.01,8.15.06,7.46,8.05-.01.12-.04.25-.04.37.07,2.98-1.26,4.06-4.34,3.98-8.36-.22-16.73-.04-25.09-.18-2.74-.05-3.74.82-3.66,3.67.76,27.86.24,55.73.38,83.59.05,10.65,0,10.55-10.78,10.85-2.67.07-3.43-.65-3.42-3.29.13-30.24.14-60.48.24-90.71,0-4.22.02-4.34-4.42-3.81h0Z"/>
      <path class="cls-1" d="M288.36,402.87c.51-2.04,2.13-2.29,3.79-2.16,2.21.18,4.42.49,6.61.89,2.07.38,2.2,1.96,2.14,3.73-.9,23.16-.06,46.33-.38,69.49,0,.61.19,1.22.29,1.83-.48,7.51-.44,15,.18,22.49l-.05-.03c.52.68,1.26.71,2.02.69,16.2-.46,32.41.33,48.61-.5,1.71,3.7.98,7.47.34,11.24l.02-.03-1.14.66c-19.06-.75-38.13-.12-57.19-.02-5.06.03-5.15.14-5.15-5.01-.01-24.46.04-48.91.04-73.37,0-9.97-.08-19.95-.12-29.92v.02Z"/>
      <path class="cls-1" d="M191.31,456.35v-48.71c0-4.43,2.27-6.65,6.8-6.66,9.61,0,19.22.06,28.83,0,5.54-.03,10.9.89,16.24,2.32,3.67.98,6.74,2.84,9.03,5.7,6.77,8.44,10.03,23.76,2.51,34.69-1.37,2-3.12,3.5-5.07,4.9-1.66,1.2-2.04,2.58.49,3.41,1.06.35,2.09.82,3.11,1.29,8.26,3.82,13.16,10.13,13.85,19.32.28,3.72.38,7.51.08,11.22-1.16,14.34-12.1,25.88-26.54,26.61-15.56.79-31.18.38-46.77.54-2.17.02-2.63-.88-2.62-2.96.09-17.23.05-34.47.05-51.7h.02v.03ZM237.51,443.31c4.89-1.19,8.49-5.07,8.82-9.7.18-2.61.12-5.24.17-7.86.07-3.81-1.54-6.68-4.68-8.83-2.97-2.02-6.19-3.32-9.76-3.39-8.47-.15-16.95-.12-25.43-.19-1.81-.01-2.72.65-2.7,2.65.1,9.11.12,18.21.14,27.32,0,1.78.47,2.74,2.56,2.68,8.22-.22,16.45-.28,24.68-.39,1.41-.02,2.75-.14,3.62-1.47,1.11.5,1.96.19,2.58-.83h0ZM231.92,498.92c2.23,1.1,4.37.45,6.5-.34,7.14-.54,13.56-5.56,14.66-11.71.55-3.06.84-6.19.97-9.3.48-11.68-7.36-20.12-19.08-20.36-9.22-.19-18.45,0-27.67-.06-2.35-.01-3.34.84-3.32,3.3.09,11.98.1,23.96.05,35.93,0,2.5.71,3.54,3.44,3.45,6.85-.22,13.71-.1,20.57-.2,1.31-.02,2.77.43,3.89-.74v.03Z"/>
    </g>
  </g>
</svg>